<svg width="644" height="410" viewBox="0 0 644 410" fill="none" xmlns="http://www.w3.org/2000/svg">
<g filter="url(#filter0_i_4163_296)">
<rect width="644" height="410" rx="44" fill="url(#paint0_radial_4163_296)" fill-opacity="0.9"/>
<path d="M267.48 103L266.016 97.3945H257.422L255.957 103H247.52L256.719 74.8164H267.109L276.309 103H267.48ZM261.641 81.3203L258.926 91.5547H264.512L261.797 81.3203H261.641ZM292.988 81.125C295.697 81.125 297.78 82.082 299.238 83.9961C300.697 85.9102 301.426 88.651 301.426 92.2188C301.426 95.7734 300.703 98.5143 299.258 100.441C297.812 102.355 295.755 103.312 293.086 103.312C291.51 103.312 290.156 102.961 289.023 102.258C287.891 101.542 287.07 100.546 286.562 99.2695H286.406V109.895H278.398V81.4375H286.426V85.3242H286.562C287.083 83.9961 287.897 82.9674 289.004 82.2383C290.124 81.4961 291.452 81.125 292.988 81.125ZM287.305 95.832C287.917 96.7044 288.75 97.1406 289.805 97.1406C290.859 97.1406 291.693 96.6979 292.305 95.8125C292.917 94.9271 293.223 93.7292 293.223 92.2188C293.223 90.7214 292.91 89.5299 292.285 88.6445C291.673 87.7461 290.846 87.2969 289.805 87.2969C288.763 87.2969 287.93 87.7461 287.305 88.6445C286.693 89.5299 286.38 90.7279 286.367 92.2383C286.38 93.7487 286.693 94.9466 287.305 95.832ZM303.906 103V81.4375H311.914V103H303.906ZM310.742 79.1719C309.987 79.888 309.043 80.2461 307.91 80.2461C306.777 80.2461 305.827 79.888 305.059 79.1719C304.303 78.4427 303.926 77.5378 303.926 76.457C303.926 75.3763 304.303 74.4779 305.059 73.7617C305.827 73.0326 306.777 72.668 307.91 72.668C309.043 72.668 309.987 73.0326 310.742 73.7617C311.51 74.4779 311.895 75.3763 311.895 76.457C311.895 77.5378 311.51 78.4427 310.742 79.1719ZM325.566 86.3984C324.655 86.3984 323.887 86.6979 323.262 87.2969C322.637 87.8958 322.285 88.6576 322.207 89.582H328.926C328.861 88.6185 328.516 87.8503 327.891 87.2773C327.279 86.6914 326.504 86.3984 325.566 86.3984ZM329.16 96.0078H336.289C335.951 98.3385 334.831 100.181 332.93 101.535C331.029 102.876 328.6 103.547 325.645 103.547C322.116 103.547 319.355 102.557 317.363 100.578C315.371 98.5859 314.375 95.8385 314.375 92.3359C314.375 88.8073 315.365 86.0208 317.344 83.9766C319.323 81.9193 322.005 80.8906 325.391 80.8906C328.737 80.8906 331.406 81.8802 333.398 83.8594C335.391 85.8255 336.387 88.4557 336.387 91.75V93.918H322.09V94.4258C322.09 95.4805 322.435 96.3529 323.125 97.043C323.815 97.7201 324.694 98.0586 325.762 98.0586C326.582 98.0586 327.292 97.8763 327.891 97.5117C328.503 97.1471 328.926 96.6458 329.16 96.0078ZM378.789 103H371.562V86.6719H371.406L365.059 102.668H360.625L354.277 86.6719H354.121V103H346.895V74.8164H356.465L362.773 91.2617H362.93L369.219 74.8164H378.789V103ZM391.406 97.9609C392.331 97.9609 393.132 97.7266 393.809 97.2578C394.486 96.776 394.824 96.151 394.824 95.3828V93.9766L391.426 94.2109C390.671 94.263 390.085 94.4583 389.668 94.7969C389.251 95.1354 389.043 95.5716 389.043 96.1055C389.043 96.6784 389.258 97.1341 389.688 97.4727C390.117 97.7982 390.69 97.9609 391.406 97.9609ZM388.418 103.312C386.413 103.312 384.701 102.694 383.281 101.457C381.862 100.207 381.152 98.6315 381.152 96.7305C381.152 94.6732 381.914 93.0846 383.438 91.9648C384.974 90.832 387.194 90.1745 390.098 89.9922L394.824 89.6992V88.6445C394.824 87.9414 394.583 87.3945 394.102 87.0039C393.62 86.6133 392.995 86.418 392.227 86.418C391.432 86.418 390.781 86.6068 390.273 86.9844C389.766 87.362 389.479 87.8372 389.414 88.4102H382.266C382.37 86.0924 383.346 84.263 385.195 82.9219C387.044 81.5677 389.531 80.8906 392.656 80.8906C395.638 80.8906 398.047 81.5742 399.883 82.9414C401.719 84.2956 402.637 86.0664 402.637 88.2539V103H394.824V100.109H394.668C394.121 101.125 393.268 101.913 392.109 102.473C390.964 103.033 389.733 103.312 388.418 103.312ZM405.664 103V81.4375H413.477V85.6758H413.633C414.18 84.1523 415.013 82.9935 416.133 82.1992C417.253 81.4049 418.626 81.0078 420.254 81.0078C422.663 81.0078 424.512 81.724 425.801 83.1562C427.103 84.5755 427.754 86.5872 427.754 89.1914V103H419.746V90.9688C419.746 89.862 419.486 89.0026 418.965 88.3906C418.457 87.7786 417.708 87.4727 416.719 87.4727C415.781 87.4727 415.039 87.7982 414.492 88.4492C413.945 89.0872 413.672 89.9206 413.672 90.9492V103H405.664ZM441.309 86.3984C440.397 86.3984 439.629 86.6979 439.004 87.2969C438.379 87.8958 438.027 88.6576 437.949 89.582H444.668C444.603 88.6185 444.258 87.8503 443.633 87.2773C443.021 86.6914 442.246 86.3984 441.309 86.3984ZM444.902 96.0078H452.031C451.693 98.3385 450.573 100.181 448.672 101.535C446.771 102.876 444.342 103.547 441.387 103.547C437.858 103.547 435.098 102.557 433.105 100.578C431.113 98.5859 430.117 95.8385 430.117 92.3359C430.117 88.8073 431.107 86.0208 433.086 83.9766C435.065 81.9193 437.747 80.8906 441.133 80.8906C444.479 80.8906 447.148 81.8802 449.141 83.8594C451.133 85.8255 452.129 88.4557 452.129 91.75V93.918H437.832V94.4258C437.832 95.4805 438.177 96.3529 438.867 97.043C439.557 97.7201 440.436 98.0586 441.504 98.0586C442.324 98.0586 443.034 97.8763 443.633 97.5117C444.245 97.1471 444.668 96.6458 444.902 96.0078Z" fill="white"/>
<rect x="50" y="178" width="544" height="1" rx="0.5" fill="#EBEBEB"/>
<path d="M232.156 278H223.875V267.102H213.953V278H205.672V249.816H213.953V260.52H223.875V249.816H232.156V278ZM250.691 278H242.41V256.398H234.988V249.816H258.113V256.398H250.691V278ZM292.84 278H285.613V261.672H285.457L279.109 277.668H274.676L268.328 261.672H268.172V278H260.945V249.816H270.516L276.824 266.262H276.98L283.27 249.816H292.84V278ZM316.102 271.418V278H296.766V249.816H305.047V271.418H316.102ZM340.145 278.488C335.796 278.488 332.378 277.212 329.891 274.66C327.404 272.095 326.16 268.508 326.16 263.898C326.16 259.289 327.404 255.708 329.891 253.156C332.378 250.604 335.796 249.328 340.145 249.328C342.605 249.328 344.826 249.823 346.805 250.812C348.797 251.802 350.366 253.202 351.512 255.012C352.658 256.822 353.23 258.872 353.23 261.164H345.301C345.21 259.562 344.689 258.273 343.738 257.297C342.788 256.32 341.59 255.832 340.145 255.832C338.439 255.832 337.085 256.548 336.082 257.98C335.092 259.413 334.598 261.379 334.598 263.879C334.598 266.418 335.092 268.404 336.082 269.836C337.072 271.268 338.432 271.984 340.164 271.984C341.596 271.984 342.781 271.503 343.719 270.539C344.669 269.562 345.21 268.26 345.34 266.633H353.27C353.257 268.938 352.684 270.995 351.551 272.805C350.431 274.615 348.875 276.014 346.883 277.004C344.904 277.993 342.658 278.488 340.145 278.488ZM359.559 253.254C362.111 250.637 365.568 249.328 369.93 249.328C374.292 249.328 377.749 250.637 380.301 253.254C382.853 255.871 384.129 259.426 384.129 263.918C384.129 268.41 382.853 271.965 380.301 274.582C377.749 277.186 374.292 278.488 369.93 278.488C365.555 278.488 362.091 277.186 359.539 274.582C357 271.965 355.73 268.41 355.73 263.918C355.73 259.426 357.007 255.871 359.559 253.254ZM374.109 258.098C373.055 256.652 371.661 255.93 369.93 255.93C368.198 255.93 366.805 256.652 365.75 258.098C364.695 259.543 364.168 261.483 364.168 263.918C364.168 266.34 364.689 268.273 365.73 269.719C366.785 271.164 368.185 271.887 369.93 271.887C371.674 271.887 373.068 271.164 374.109 269.719C375.164 268.273 375.691 266.34 375.691 263.918C375.691 261.483 375.164 259.543 374.109 258.098ZM387.352 249.816H399.402C403.712 249.816 407.052 251.014 409.422 253.41C411.792 255.793 412.977 259.224 412.977 263.703C412.977 268.208 411.779 271.717 409.383 274.23C407 276.743 403.673 278 399.402 278H387.352V249.816ZM395.633 256.398V271.418H398.23C402.436 271.418 404.539 268.846 404.539 263.703C404.539 261.346 403.986 259.543 402.879 258.293C401.785 257.03 400.236 256.398 398.23 256.398H395.633ZM436.102 271.418V278H416.219V249.816H436.102V256.398H424.5V260.949H435.379V266.887H424.5V271.418H436.102ZM448.25 255.93V263.078H451.668C452.827 263.078 453.738 262.753 454.402 262.102C455.079 261.451 455.418 260.591 455.418 259.523C455.418 258.469 455.073 257.609 454.383 256.945C453.693 256.268 452.794 255.93 451.688 255.93H448.25ZM448.25 268.547V278H439.969V249.816H452.488C456.212 249.816 459.038 250.65 460.965 252.316C462.905 253.983 463.875 256.34 463.875 259.387C463.875 261.092 463.471 262.668 462.664 264.113C461.87 265.559 460.757 266.626 459.324 267.316L464.676 278H455.418L450.965 268.547H448.25ZM63.7578 297.816H75.8086C80.1185 297.816 83.4583 299.014 85.8281 301.41C88.1979 303.793 89.3828 307.224 89.3828 311.703C89.3828 316.208 88.1849 319.717 85.7891 322.23C83.4062 324.743 80.0794 326 75.8086 326H63.7578V297.816ZM72.0391 304.398V319.418H74.6367C78.8424 319.418 80.9453 316.846 80.9453 311.703C80.9453 309.346 80.3919 307.543 79.2852 306.293C78.1914 305.03 76.6419 304.398 74.6367 304.398H72.0391ZM102.82 309.398C101.909 309.398 101.141 309.698 100.516 310.297C99.8906 310.896 99.5391 311.658 99.4609 312.582H106.18C106.115 311.618 105.77 310.85 105.145 310.277C104.533 309.691 103.758 309.398 102.82 309.398ZM106.414 319.008H113.543C113.204 321.339 112.085 323.181 110.184 324.535C108.283 325.876 105.854 326.547 102.898 326.547C99.3698 326.547 96.6094 325.557 94.6172 323.578C92.625 321.586 91.6289 318.839 91.6289 315.336C91.6289 311.807 92.6185 309.021 94.5977 306.977C96.5768 304.919 99.2591 303.891 102.645 303.891C105.991 303.891 108.66 304.88 110.652 306.859C112.645 308.826 113.641 311.456 113.641 314.75V316.918H99.3438V317.426C99.3438 318.48 99.6888 319.353 100.379 320.043C101.069 320.72 101.948 321.059 103.016 321.059C103.836 321.059 104.546 320.876 105.145 320.512C105.757 320.147 106.18 319.646 106.414 319.008ZM115.711 311.137C115.711 308.884 116.609 307.113 118.406 305.824C120.203 304.535 122.671 303.891 125.809 303.891C128.96 303.891 131.421 304.555 133.191 305.883C134.975 307.211 135.867 309.053 135.867 311.41H128.602C128.602 310.707 128.341 310.154 127.82 309.75C127.312 309.333 126.622 309.125 125.75 309.125C125.034 309.125 124.454 309.262 124.012 309.535C123.582 309.796 123.367 310.154 123.367 310.609C123.367 311.286 124.064 311.755 125.457 312.016L130.32 312.973C132.456 313.389 134.018 314.079 135.008 315.043C136.01 315.993 136.512 317.289 136.512 318.93C136.512 321.26 135.548 323.116 133.621 324.496C131.707 325.863 129.161 326.547 125.984 326.547C122.664 326.547 120.073 325.876 118.211 324.535C116.362 323.181 115.366 321.339 115.223 319.008H122.957C123.035 319.724 123.348 320.29 123.895 320.707C124.454 321.111 125.184 321.312 126.082 321.312C126.863 321.312 127.475 321.189 127.918 320.941C128.361 320.681 128.582 320.329 128.582 319.887C128.582 319.548 128.426 319.275 128.113 319.066C127.801 318.845 127.28 318.669 126.551 318.539L122.391 317.719C120.216 317.289 118.556 316.514 117.41 315.395C116.277 314.262 115.711 312.842 115.711 311.137ZM138.66 326V304.438H146.668V326H138.66ZM145.496 302.172C144.741 302.888 143.797 303.246 142.664 303.246C141.531 303.246 140.581 302.888 139.812 302.172C139.057 301.443 138.68 300.538 138.68 299.457C138.68 298.376 139.057 297.478 139.812 296.762C140.581 296.033 141.531 295.668 142.664 295.668C143.797 295.668 144.741 296.033 145.496 296.762C146.264 297.478 146.648 298.376 146.648 299.457C146.648 300.538 146.264 301.443 145.496 302.172ZM158.211 318.734C158.81 319.542 159.656 319.945 160.75 319.945C161.844 319.945 162.69 319.548 163.289 318.754C163.888 317.947 164.188 316.775 164.188 315.238C164.188 313.702 163.882 312.497 163.27 311.625C162.658 310.74 161.818 310.297 160.75 310.297C159.682 310.297 158.842 310.74 158.23 311.625C157.632 312.497 157.332 313.695 157.332 315.219C157.332 316.755 157.625 317.927 158.211 318.734ZM160.438 334.125C157.234 334.125 154.669 333.493 152.742 332.23C150.828 330.98 149.786 329.333 149.617 327.289H157.312C157.43 327.81 157.788 328.233 158.387 328.559C158.986 328.897 159.728 329.066 160.613 329.066C161.772 329.066 162.651 328.793 163.25 328.246C163.849 327.699 164.148 326.957 164.148 326.02V321.879H163.992C163.641 323.025 162.879 323.956 161.707 324.672C160.535 325.375 159.148 325.727 157.547 325.727C154.982 325.727 152.938 324.802 151.414 322.953C149.891 321.091 149.129 318.493 149.129 315.16C149.129 311.697 149.878 308.995 151.375 307.055C152.885 305.102 154.982 304.125 157.664 304.125C159.201 304.125 160.529 304.516 161.648 305.297C162.781 306.065 163.562 307.074 163.992 308.324H164.148V304.438H172.156V325.824C172.156 328.363 171.076 330.382 168.914 331.879C166.766 333.376 163.94 334.125 160.438 334.125ZM175.184 326V304.438H182.996V308.676H183.152C183.699 307.152 184.533 305.993 185.652 305.199C186.772 304.405 188.146 304.008 189.773 304.008C192.182 304.008 194.031 304.724 195.32 306.156C196.622 307.576 197.273 309.587 197.273 312.191V326H189.266V313.969C189.266 312.862 189.005 312.003 188.484 311.391C187.977 310.779 187.228 310.473 186.238 310.473C185.301 310.473 184.559 310.798 184.012 311.449C183.465 312.087 183.191 312.921 183.191 313.949V326H175.184ZM209.637 320.961C210.561 320.961 211.362 320.727 212.039 320.258C212.716 319.776 213.055 319.151 213.055 318.383V316.977L209.656 317.211C208.901 317.263 208.315 317.458 207.898 317.797C207.482 318.135 207.273 318.572 207.273 319.105C207.273 319.678 207.488 320.134 207.918 320.473C208.348 320.798 208.921 320.961 209.637 320.961ZM206.648 326.312C204.643 326.312 202.931 325.694 201.512 324.457C200.092 323.207 199.383 321.632 199.383 319.73C199.383 317.673 200.145 316.085 201.668 314.965C203.204 313.832 205.424 313.174 208.328 312.992L213.055 312.699V311.645C213.055 310.941 212.814 310.395 212.332 310.004C211.85 309.613 211.225 309.418 210.457 309.418C209.663 309.418 209.012 309.607 208.504 309.984C207.996 310.362 207.71 310.837 207.645 311.41H200.496C200.6 309.092 201.577 307.263 203.426 305.922C205.275 304.568 207.762 303.891 210.887 303.891C213.868 303.891 216.277 304.574 218.113 305.941C219.949 307.296 220.867 309.066 220.867 311.254V326H213.055V323.109H212.898C212.352 324.125 211.499 324.913 210.34 325.473C209.194 326.033 207.964 326.312 206.648 326.312ZM223.523 311.137C223.523 308.884 224.422 307.113 226.219 305.824C228.016 304.535 230.483 303.891 233.621 303.891C236.772 303.891 239.233 304.555 241.004 305.883C242.788 307.211 243.68 309.053 243.68 311.41H236.414C236.414 310.707 236.154 310.154 235.633 309.75C235.125 309.333 234.435 309.125 233.562 309.125C232.846 309.125 232.267 309.262 231.824 309.535C231.395 309.796 231.18 310.154 231.18 310.609C231.18 311.286 231.876 311.755 233.27 312.016L238.133 312.973C240.268 313.389 241.831 314.079 242.82 315.043C243.823 315.993 244.324 317.289 244.324 318.93C244.324 321.26 243.361 323.116 241.434 324.496C239.52 325.863 236.974 326.547 233.797 326.547C230.477 326.547 227.885 325.876 226.023 324.535C224.174 323.181 223.178 321.339 223.035 319.008H230.77C230.848 319.724 231.16 320.29 231.707 320.707C232.267 321.111 232.996 321.312 233.895 321.312C234.676 321.312 235.288 321.189 235.73 320.941C236.173 320.681 236.395 320.329 236.395 319.887C236.395 319.548 236.238 319.275 235.926 319.066C235.613 318.845 235.092 318.669 234.363 318.539L230.203 317.719C228.029 317.289 226.368 316.514 225.223 315.395C224.09 314.262 223.523 312.842 223.523 311.137ZM268.855 326.312C267.28 326.312 265.926 325.961 264.793 325.258C263.673 324.542 262.859 323.546 262.352 322.27H262.195V326H254.188V297.816H262.195V308.324H262.352C262.859 306.996 263.667 305.967 264.773 305.238C265.893 304.496 267.221 304.125 268.758 304.125C271.479 304.125 273.569 305.082 275.027 306.996C276.486 308.91 277.215 311.651 277.215 315.219C277.215 318.773 276.492 321.514 275.047 323.441C273.602 325.355 271.538 326.312 268.855 326.312ZM268.074 311.645C267.462 310.746 266.635 310.297 265.594 310.297C264.552 310.297 263.719 310.746 263.094 311.645C262.482 312.53 262.169 313.728 262.156 315.238C262.169 316.762 262.482 317.96 263.094 318.832C263.706 319.704 264.539 320.141 265.594 320.141C266.635 320.141 267.462 319.698 268.074 318.812C268.699 317.927 269.012 316.729 269.012 315.219C269.012 313.721 268.699 312.53 268.074 311.645ZM301.668 304.438V326H293.855V321.762H293.699C293.257 323.259 292.521 324.411 291.492 325.219C290.477 326.026 289.181 326.43 287.605 326.43C285.236 326.43 283.302 325.701 281.805 324.242C280.32 322.771 279.578 320.779 279.578 318.266V304.438H287.586V316.469C287.586 317.589 287.866 318.454 288.426 319.066C288.986 319.665 289.741 319.965 290.691 319.965C291.59 319.965 292.306 319.646 292.84 319.008C293.387 318.37 293.66 317.53 293.66 316.488V304.438H301.668ZM326.277 304.438L319.363 326H309.969L302.957 304.438H311.59L314.715 319.535H314.871L317.898 304.438H326.277ZM337.762 326.547C334.22 326.547 331.447 325.564 329.441 323.598C327.436 321.618 326.434 318.819 326.434 315.199C326.434 311.671 327.449 308.904 329.48 306.898C331.525 304.893 334.285 303.891 337.762 303.891C341.264 303.891 344.031 304.893 346.062 306.898C348.094 308.891 349.109 311.658 349.109 315.199C349.109 318.819 348.107 321.618 346.102 323.598C344.096 325.564 341.316 326.547 337.762 326.547ZM337.762 320.824C338.764 320.824 339.552 320.336 340.125 319.359C340.698 318.383 340.984 317.003 340.984 315.219C340.984 313.474 340.691 312.107 340.105 311.117C339.533 310.115 338.751 309.613 337.762 309.613C336.772 309.613 335.991 310.115 335.418 311.117C334.845 312.107 334.559 313.474 334.559 315.219C334.559 317.016 334.839 318.402 335.398 319.379C335.958 320.342 336.746 320.824 337.762 320.824ZM358.836 311.137C358.836 308.884 359.734 307.113 361.531 305.824C363.328 304.535 365.796 303.891 368.934 303.891C372.085 303.891 374.546 304.555 376.316 305.883C378.1 307.211 378.992 309.053 378.992 311.41H371.727C371.727 310.707 371.466 310.154 370.945 309.75C370.438 309.333 369.747 309.125 368.875 309.125C368.159 309.125 367.579 309.262 367.137 309.535C366.707 309.796 366.492 310.154 366.492 310.609C366.492 311.286 367.189 311.755 368.582 312.016L373.445 312.973C375.581 313.389 377.143 314.079 378.133 315.043C379.135 315.993 379.637 317.289 379.637 318.93C379.637 321.26 378.673 323.116 376.746 324.496C374.832 325.863 372.286 326.547 369.109 326.547C365.789 326.547 363.198 325.876 361.336 324.535C359.487 323.181 358.491 321.339 358.348 319.008H366.082C366.16 319.724 366.473 320.29 367.02 320.707C367.579 321.111 368.309 321.312 369.207 321.312C369.988 321.312 370.6 321.189 371.043 320.941C371.486 320.681 371.707 320.329 371.707 319.887C371.707 319.548 371.551 319.275 371.238 319.066C370.926 318.845 370.405 318.669 369.676 318.539L365.516 317.719C363.341 317.289 361.681 316.514 360.535 315.395C359.402 314.262 358.836 312.842 358.836 311.137ZM403.777 304.438V326H395.965V321.762H395.809C395.366 323.259 394.63 324.411 393.602 325.219C392.586 326.026 391.29 326.43 389.715 326.43C387.345 326.43 385.411 325.701 383.914 324.242C382.43 322.771 381.688 320.779 381.688 318.266V304.438H389.695V316.469C389.695 317.589 389.975 318.454 390.535 319.066C391.095 319.665 391.85 319.965 392.801 319.965C393.699 319.965 394.415 319.646 394.949 319.008C395.496 318.37 395.77 317.53 395.77 316.488V304.438H403.777ZM415.047 312.23L420.281 304.438H429.09L421.922 313.637L429.598 326H420.398L415.945 318.422L414.891 319.828V326H406.883V297.816H414.891V312.23H415.047ZM452.41 304.438V326H444.598V321.762H444.441C443.999 323.259 443.263 324.411 442.234 325.219C441.219 326.026 439.923 326.43 438.348 326.43C435.978 326.43 434.044 325.701 432.547 324.242C431.062 322.771 430.32 320.779 430.32 318.266V304.438H438.328V316.469C438.328 317.589 438.608 318.454 439.168 319.066C439.728 319.665 440.483 319.965 441.434 319.965C442.332 319.965 443.048 319.646 443.582 319.008C444.129 318.37 444.402 317.53 444.402 316.488V304.438H452.41ZM455.418 326V304.438H463.23V308.676H463.387C464.194 305.642 465.874 304.125 468.426 304.125C469.116 304.125 469.741 304.229 470.301 304.438V311.156C469.598 310.857 468.823 310.707 467.977 310.707C464.943 310.707 463.426 312.224 463.426 315.258V326H455.418ZM474.148 299.711H482.156V304.438H485.945V310.238H482.156V318.207C482.156 319.574 482.964 320.258 484.578 320.258C485.099 320.258 485.555 320.225 485.945 320.16V325.707C484.995 325.902 483.895 326 482.645 326C479.611 326 477.436 325.531 476.121 324.594C474.806 323.656 474.148 322.12 474.148 319.984V310.238H471.297V304.438H474.148V299.711ZM498.035 320.961C498.96 320.961 499.76 320.727 500.438 320.258C501.115 319.776 501.453 319.151 501.453 318.383V316.977L498.055 317.211C497.299 317.263 496.714 317.458 496.297 317.797C495.88 318.135 495.672 318.572 495.672 319.105C495.672 319.678 495.887 320.134 496.316 320.473C496.746 320.798 497.319 320.961 498.035 320.961ZM495.047 326.312C493.042 326.312 491.329 325.694 489.91 324.457C488.491 323.207 487.781 321.632 487.781 319.73C487.781 317.673 488.543 316.085 490.066 314.965C491.603 313.832 493.823 313.174 496.727 312.992L501.453 312.699V311.645C501.453 310.941 501.212 310.395 500.73 310.004C500.249 309.613 499.624 309.418 498.855 309.418C498.061 309.418 497.41 309.607 496.902 309.984C496.395 310.362 496.108 310.837 496.043 311.41H488.895C488.999 309.092 489.975 307.263 491.824 305.922C493.673 304.568 496.16 303.891 499.285 303.891C502.267 303.891 504.676 304.574 506.512 305.941C508.348 307.296 509.266 309.066 509.266 311.254V326H501.453V323.109H501.297C500.75 324.125 499.897 324.913 498.738 325.473C497.592 326.033 496.362 326.312 495.047 326.312ZM511.922 311.137C511.922 308.884 512.82 307.113 514.617 305.824C516.414 304.535 518.882 303.891 522.02 303.891C525.171 303.891 527.632 304.555 529.402 305.883C531.186 307.211 532.078 309.053 532.078 311.41H524.812C524.812 310.707 524.552 310.154 524.031 309.75C523.523 309.333 522.833 309.125 521.961 309.125C521.245 309.125 520.665 309.262 520.223 309.535C519.793 309.796 519.578 310.154 519.578 310.609C519.578 311.286 520.275 311.755 521.668 312.016L526.531 312.973C528.667 313.389 530.229 314.079 531.219 315.043C532.221 315.993 532.723 317.289 532.723 318.93C532.723 321.26 531.759 323.116 529.832 324.496C527.918 325.863 525.372 326.547 522.195 326.547C518.875 326.547 516.284 325.876 514.422 324.535C512.573 323.181 511.577 321.339 511.434 319.008H519.168C519.246 319.724 519.559 320.29 520.105 320.707C520.665 321.111 521.395 321.312 522.293 321.312C523.074 321.312 523.686 321.189 524.129 320.941C524.572 320.681 524.793 320.329 524.793 319.887C524.793 319.548 524.637 319.275 524.324 319.066C524.012 318.845 523.491 318.669 522.762 318.539L518.602 317.719C516.427 317.289 514.767 316.514 513.621 315.395C512.488 314.262 511.922 312.842 511.922 311.137ZM557.078 304.125C559.786 304.125 561.87 305.082 563.328 306.996C564.786 308.91 565.516 311.651 565.516 315.219C565.516 318.773 564.793 321.514 563.348 323.441C561.902 325.355 559.845 326.312 557.176 326.312C555.6 326.312 554.246 325.961 553.113 325.258C551.98 324.542 551.16 323.546 550.652 322.27H550.496V332.895H542.488V304.438H550.516V308.324H550.652C551.173 306.996 551.987 305.967 553.094 305.238C554.214 304.496 555.542 304.125 557.078 304.125ZM551.395 318.832C552.007 319.704 552.84 320.141 553.895 320.141C554.949 320.141 555.783 319.698 556.395 318.812C557.007 317.927 557.312 316.729 557.312 315.219C557.312 313.721 557 312.53 556.375 311.645C555.763 310.746 554.936 310.297 553.895 310.297C552.853 310.297 552.02 310.746 551.395 311.645C550.783 312.53 550.47 313.728 550.457 315.238C550.47 316.749 550.783 317.947 551.395 318.832ZM578.641 309.398C577.729 309.398 576.961 309.698 576.336 310.297C575.711 310.896 575.359 311.658 575.281 312.582H582C581.935 311.618 581.59 310.85 580.965 310.277C580.353 309.691 579.578 309.398 578.641 309.398ZM582.234 319.008H589.363C589.025 321.339 587.905 323.181 586.004 324.535C584.103 325.876 581.674 326.547 578.719 326.547C575.19 326.547 572.43 325.557 570.438 323.578C568.445 321.586 567.449 318.839 567.449 315.336C567.449 311.807 568.439 309.021 570.418 306.977C572.397 304.919 575.079 303.891 578.465 303.891C581.811 303.891 584.48 304.88 586.473 306.859C588.465 308.826 589.461 311.456 589.461 314.75V316.918H575.164V317.426C575.164 318.48 575.509 319.353 576.199 320.043C576.889 320.72 577.768 321.059 578.836 321.059C579.656 321.059 580.366 320.876 580.965 320.512C581.577 320.147 582 319.646 582.234 319.008ZM591.902 326V304.438H599.715V308.676H599.871C600.678 305.642 602.358 304.125 604.91 304.125C605.6 304.125 606.225 304.229 606.785 304.438V311.156C606.082 310.857 605.307 310.707 604.461 310.707C601.427 310.707 599.91 312.224 599.91 315.258V326H591.902ZM275.145 374V358.238H272.293V352.633H275.145V351.734C275.145 349.534 275.763 347.945 277 346.969C278.237 345.979 280.359 345.484 283.367 345.484C284.812 345.484 286.062 345.595 287.117 345.816V350.602C286.727 350.523 286.219 350.484 285.594 350.484C283.81 350.484 282.918 351.031 282.918 352.125V352.633H287.059V358.238H283.152V374H275.145ZM289.539 374V352.438H297.547V374H289.539ZM296.375 350.172C295.62 350.888 294.676 351.246 293.543 351.246C292.41 351.246 291.46 350.888 290.691 350.172C289.936 349.443 289.559 348.538 289.559 347.457C289.559 346.376 289.936 345.478 290.691 344.762C291.46 344.033 292.41 343.668 293.543 343.668C294.676 343.668 295.62 344.033 296.375 344.762C297.143 345.478 297.527 346.376 297.527 347.457C297.527 348.538 297.143 349.443 296.375 350.172ZM309.09 366.734C309.689 367.542 310.535 367.945 311.629 367.945C312.723 367.945 313.569 367.548 314.168 366.754C314.767 365.947 315.066 364.775 315.066 363.238C315.066 361.702 314.76 360.497 314.148 359.625C313.536 358.74 312.697 358.297 311.629 358.297C310.561 358.297 309.721 358.74 309.109 359.625C308.51 360.497 308.211 361.695 308.211 363.219C308.211 364.755 308.504 365.927 309.09 366.734ZM311.316 382.125C308.113 382.125 305.548 381.493 303.621 380.23C301.707 378.98 300.665 377.333 300.496 375.289H308.191C308.309 375.81 308.667 376.233 309.266 376.559C309.865 376.897 310.607 377.066 311.492 377.066C312.651 377.066 313.53 376.793 314.129 376.246C314.728 375.699 315.027 374.957 315.027 374.02V369.879H314.871C314.52 371.025 313.758 371.956 312.586 372.672C311.414 373.375 310.027 373.727 308.426 373.727C305.861 373.727 303.816 372.802 302.293 370.953C300.77 369.091 300.008 366.493 300.008 363.16C300.008 359.697 300.757 356.995 302.254 355.055C303.764 353.102 305.861 352.125 308.543 352.125C310.079 352.125 311.408 352.516 312.527 353.297C313.66 354.065 314.441 355.074 314.871 356.324H315.027V352.438H323.035V373.824C323.035 376.363 321.954 378.382 319.793 379.879C317.645 381.376 314.819 382.125 311.316 382.125ZM326.062 374V352.438H333.875V356.793H334.031C334.435 355.335 335.197 354.176 336.316 353.316C337.436 352.444 338.732 352.008 340.203 352.008C341.844 352.008 343.185 352.424 344.227 353.258C345.281 354.078 345.939 355.243 346.199 356.754H346.355C346.72 355.322 347.501 354.176 348.699 353.316C349.91 352.444 351.336 352.008 352.977 352.008C355.073 352.008 356.779 352.698 358.094 354.078C359.409 355.445 360.066 357.229 360.066 359.43V374H352.059V361.5C352.059 359.456 351.186 358.434 349.441 358.434C348.634 358.434 348.003 358.707 347.547 359.254C347.091 359.788 346.863 360.53 346.863 361.48V374H339.266V361.52C339.266 359.462 338.4 358.434 336.668 358.434C335.861 358.434 335.223 358.707 334.754 359.254C334.298 359.801 334.07 360.543 334.07 361.48V374H326.062ZM372.469 368.961C373.393 368.961 374.194 368.727 374.871 368.258C375.548 367.776 375.887 367.151 375.887 366.383V364.977L372.488 365.211C371.733 365.263 371.147 365.458 370.73 365.797C370.314 366.135 370.105 366.572 370.105 367.105C370.105 367.678 370.32 368.134 370.75 368.473C371.18 368.798 371.753 368.961 372.469 368.961ZM369.48 374.312C367.475 374.312 365.763 373.694 364.344 372.457C362.924 371.207 362.215 369.632 362.215 367.73C362.215 365.673 362.977 364.085 364.5 362.965C366.036 361.832 368.257 361.174 371.16 360.992L375.887 360.699V359.645C375.887 358.941 375.646 358.395 375.164 358.004C374.682 357.613 374.057 357.418 373.289 357.418C372.495 357.418 371.844 357.607 371.336 357.984C370.828 358.362 370.542 358.837 370.477 359.41H363.328C363.432 357.092 364.409 355.263 366.258 353.922C368.107 352.568 370.594 351.891 373.719 351.891C376.701 351.891 379.109 352.574 380.945 353.941C382.781 355.296 383.699 357.066 383.699 359.254V374H375.887V371.109H375.73C375.184 372.125 374.331 372.913 373.172 373.473C372.026 374.033 370.796 374.312 369.48 374.312ZM394.129 373.082C393.335 373.876 392.378 374.273 391.258 374.273C390.138 374.273 389.181 373.876 388.387 373.082C387.592 372.288 387.195 371.331 387.195 370.211C387.195 369.091 387.592 368.134 388.387 367.34C389.181 366.546 390.138 366.148 391.258 366.148C392.378 366.148 393.335 366.546 394.129 367.34C394.923 368.134 395.32 369.091 395.32 370.211C395.32 371.331 394.923 372.288 394.129 373.082Z" fill="white"/>
</g>
<defs>
<filter id="filter0_i_4163_296" x="0" y="0" width="644" height="410" filterUnits="userSpaceOnUse" color-interpolation-filters="sRGB">
<feFlood flood-opacity="0" result="BackgroundImageFix"/>
<feBlend mode="normal" in="SourceGraphic" in2="BackgroundImageFix" result="shape"/>
<feColorMatrix in="SourceAlpha" type="matrix" values="0 0 0 0 0 0 0 0 0 0 0 0 0 0 0 0 0 0 127 0" result="hardAlpha"/>
<feOffset dy="1"/>
<feComposite in2="hardAlpha" operator="arithmetic" k2="-1" k3="1"/>
<feColorMatrix type="matrix" values="0 0 0 0 1 0 0 0 0 1 0 0 0 0 1 0 0 0 1 0"/>
<feBlend mode="overlay" in2="shape" result="effect1_innerShadow_4163_296"/>
</filter>
<radialGradient id="paint0_radial_4163_296" cx="0" cy="0" r="1" gradientUnits="userSpaceOnUse" gradientTransform="translate(599.366 304.66) rotate(-158.961) scale(658.767 306.773)">
<stop stop-color="#45278B"/>
<stop offset="1" stop-color="#2E335A"/>
</radialGradient>
</defs>
</svg>
