<svg width="656" height="429" viewBox="0 0 656 429" fill="none" xmlns="http://www.w3.org/2000/svg">
<g filter="url(#filter0_i_4163_296)">
<rect width="656" height="429" rx="44" fill="url(#paint0_radial_4163_296)" fill-opacity="0.9"/>
<path d="M131.172 114V92.4375H139.18V114H131.172ZM138.008 90.1719C137.253 90.888 136.309 91.2461 135.176 91.2461C134.043 91.2461 133.092 90.888 132.324 90.1719C131.569 89.4427 131.191 88.5378 131.191 87.457C131.191 86.3763 131.569 85.4779 132.324 84.7617C133.092 84.0326 134.043 83.668 135.176 83.668C136.309 83.668 137.253 84.0326 138.008 84.7617C138.776 85.4779 139.16 86.3763 139.16 87.457C139.16 88.5378 138.776 89.4427 138.008 90.1719ZM142.188 114V92.4375H150V96.6758H150.156C150.703 95.1523 151.536 93.9935 152.656 93.1992C153.776 92.4049 155.15 92.0078 156.777 92.0078C159.186 92.0078 161.035 92.724 162.324 94.1562C163.626 95.5755 164.277 97.5872 164.277 100.191V114H156.27V101.969C156.27 100.862 156.009 100.003 155.488 99.3906C154.98 98.7786 154.232 98.4727 153.242 98.4727C152.305 98.4727 151.562 98.7982 151.016 99.4492C150.469 100.087 150.195 100.921 150.195 101.949V114H142.188ZM169.121 114V98.2383H166.27V92.6328H169.121V91.7344C169.121 89.5339 169.74 87.9453 170.977 86.9688C172.214 85.9792 174.336 85.4844 177.344 85.4844C178.789 85.4844 180.039 85.5951 181.094 85.8164V90.6016C180.703 90.5234 180.195 90.4844 179.57 90.4844C177.786 90.4844 176.895 91.0312 176.895 92.125V92.6328H181.035V98.2383H177.129V114H169.121ZM194.102 114.547C190.56 114.547 187.786 113.564 185.781 111.598C183.776 109.618 182.773 106.819 182.773 103.199C182.773 99.6706 183.789 96.9036 185.82 94.8984C187.865 92.8932 190.625 91.8906 194.102 91.8906C197.604 91.8906 200.371 92.8932 202.402 94.8984C204.434 96.8906 205.449 99.6576 205.449 103.199C205.449 106.819 204.447 109.618 202.441 111.598C200.436 113.564 197.656 114.547 194.102 114.547ZM194.102 108.824C195.104 108.824 195.892 108.336 196.465 107.359C197.038 106.383 197.324 105.003 197.324 103.219C197.324 101.474 197.031 100.107 196.445 99.1172C195.872 98.1146 195.091 97.6133 194.102 97.6133C193.112 97.6133 192.331 98.1146 191.758 99.1172C191.185 100.107 190.898 101.474 190.898 103.219C190.898 105.016 191.178 106.402 191.738 107.379C192.298 108.342 193.086 108.824 194.102 108.824ZM225 108.961C225.924 108.961 226.725 108.727 227.402 108.258C228.079 107.776 228.418 107.151 228.418 106.383V104.977L225.02 105.211C224.264 105.263 223.678 105.458 223.262 105.797C222.845 106.135 222.637 106.572 222.637 107.105C222.637 107.678 222.852 108.134 223.281 108.473C223.711 108.798 224.284 108.961 225 108.961ZM222.012 114.312C220.007 114.312 218.294 113.694 216.875 112.457C215.456 111.207 214.746 109.632 214.746 107.73C214.746 105.673 215.508 104.085 217.031 102.965C218.568 101.832 220.788 101.174 223.691 100.992L228.418 100.699V99.6445C228.418 98.9414 228.177 98.3945 227.695 98.0039C227.214 97.6133 226.589 97.418 225.82 97.418C225.026 97.418 224.375 97.6068 223.867 97.9844C223.359 98.362 223.073 98.8372 223.008 99.4102H215.859C215.964 97.0924 216.94 95.263 218.789 93.9219C220.638 92.5677 223.125 91.8906 226.25 91.8906C229.232 91.8906 231.641 92.5742 233.477 93.9414C235.312 95.2956 236.23 97.0664 236.23 99.2539V114H228.418V111.109H228.262C227.715 112.125 226.862 112.913 225.703 113.473C224.557 114.033 223.327 114.312 222.012 114.312ZM253.848 92.125C256.556 92.125 258.639 93.082 260.098 94.9961C261.556 96.9102 262.285 99.651 262.285 103.219C262.285 106.773 261.562 109.514 260.117 111.441C258.672 113.355 256.615 114.312 253.945 114.312C252.37 114.312 251.016 113.961 249.883 113.258C248.75 112.542 247.93 111.546 247.422 110.27H247.266V120.895H239.258V92.4375H247.285V96.3242H247.422C247.943 94.9961 248.757 93.9674 249.863 93.2383C250.983 92.4961 252.311 92.125 253.848 92.125ZM248.164 106.832C248.776 107.704 249.609 108.141 250.664 108.141C251.719 108.141 252.552 107.698 253.164 106.812C253.776 105.927 254.082 104.729 254.082 103.219C254.082 101.721 253.77 100.53 253.145 99.6445C252.533 98.7461 251.706 98.2969 250.664 98.2969C249.622 98.2969 248.789 98.7461 248.164 99.6445C247.552 100.53 247.24 101.728 247.227 103.238C247.24 104.749 247.552 105.947 248.164 106.832ZM264.766 114V92.4375H272.773V114H264.766ZM271.602 90.1719C270.846 90.888 269.902 91.2461 268.77 91.2461C267.637 91.2461 266.686 90.888 265.918 90.1719C265.163 89.4427 264.785 88.5378 264.785 87.457C264.785 86.3763 265.163 85.4779 265.918 84.7617C266.686 84.0326 267.637 83.668 268.77 83.668C269.902 83.668 270.846 84.0326 271.602 84.7617C272.37 85.4779 272.754 86.3763 272.754 87.457C272.754 88.5378 272.37 89.4427 271.602 90.1719ZM286.426 97.3984C285.514 97.3984 284.746 97.6979 284.121 98.2969C283.496 98.8958 283.145 99.6576 283.066 100.582H289.785C289.72 99.6185 289.375 98.8503 288.75 98.2773C288.138 97.6914 287.363 97.3984 286.426 97.3984ZM290.02 107.008H297.148C296.81 109.339 295.69 111.181 293.789 112.535C291.888 113.876 289.46 114.547 286.504 114.547C282.975 114.547 280.215 113.557 278.223 111.578C276.23 109.586 275.234 106.839 275.234 103.336C275.234 99.8073 276.224 97.0208 278.203 94.9766C280.182 92.9193 282.865 91.8906 286.25 91.8906C289.596 91.8906 292.266 92.8802 294.258 94.8594C296.25 96.8255 297.246 99.4557 297.246 102.75V104.918H282.949V105.426C282.949 106.48 283.294 107.353 283.984 108.043C284.674 108.72 285.553 109.059 286.621 109.059C287.441 109.059 288.151 108.876 288.75 108.512C289.362 108.147 289.785 107.646 290.02 107.008ZM321.895 92.125C324.603 92.125 326.686 93.082 328.145 94.9961C329.603 96.9102 330.332 99.651 330.332 103.219C330.332 106.773 329.609 109.514 328.164 111.441C326.719 113.355 324.661 114.312 321.992 114.312C320.417 114.312 319.062 113.961 317.93 113.258C316.797 112.542 315.977 111.546 315.469 110.27H315.312V120.895H307.305V92.4375H315.332V96.3242H315.469C315.99 94.9961 316.803 93.9674 317.91 93.2383C319.03 92.4961 320.358 92.125 321.895 92.125ZM316.211 106.832C316.823 107.704 317.656 108.141 318.711 108.141C319.766 108.141 320.599 107.698 321.211 106.812C321.823 105.927 322.129 104.729 322.129 103.219C322.129 101.721 321.816 100.53 321.191 99.6445C320.579 98.7461 319.753 98.2969 318.711 98.2969C317.669 98.2969 316.836 98.7461 316.211 99.6445C315.599 100.53 315.286 101.728 315.273 103.238C315.286 104.749 315.599 105.947 316.211 106.832ZM354.805 92.4375V114H346.992V109.762H346.836C346.393 111.259 345.658 112.411 344.629 113.219C343.613 114.026 342.318 114.43 340.742 114.43C338.372 114.43 336.439 113.701 334.941 112.242C333.457 110.771 332.715 108.779 332.715 106.266V92.4375H340.723V104.469C340.723 105.589 341.003 106.454 341.562 107.066C342.122 107.665 342.878 107.965 343.828 107.965C344.727 107.965 345.443 107.646 345.977 107.008C346.523 106.37 346.797 105.53 346.797 104.488V92.4375H354.805ZM357.441 99.1367C357.441 96.8841 358.34 95.1133 360.137 93.8242C361.934 92.5352 364.401 91.8906 367.539 91.8906C370.69 91.8906 373.151 92.5547 374.922 93.8828C376.706 95.2109 377.598 97.0534 377.598 99.4102H370.332C370.332 98.707 370.072 98.1536 369.551 97.75C369.043 97.3333 368.353 97.125 367.48 97.125C366.764 97.125 366.185 97.2617 365.742 97.5352C365.312 97.7956 365.098 98.1536 365.098 98.6094C365.098 99.2865 365.794 99.7552 367.188 100.016L372.051 100.973C374.186 101.389 375.749 102.079 376.738 103.043C377.741 103.993 378.242 105.289 378.242 106.93C378.242 109.26 377.279 111.116 375.352 112.496C373.438 113.863 370.892 114.547 367.715 114.547C364.395 114.547 361.803 113.876 359.941 112.535C358.092 111.181 357.096 109.339 356.953 107.008H364.688C364.766 107.724 365.078 108.29 365.625 108.707C366.185 109.111 366.914 109.312 367.812 109.312C368.594 109.312 369.206 109.189 369.648 108.941C370.091 108.681 370.312 108.329 370.312 107.887C370.312 107.548 370.156 107.275 369.844 107.066C369.531 106.845 369.01 106.669 368.281 106.539L364.121 105.719C361.947 105.289 360.286 104.514 359.141 103.395C358.008 102.262 357.441 100.842 357.441 99.1367ZM380.488 114V85.8164H388.496V114H380.488ZM401.055 108.961C401.979 108.961 402.78 108.727 403.457 108.258C404.134 107.776 404.473 107.151 404.473 106.383V104.977L401.074 105.211C400.319 105.263 399.733 105.458 399.316 105.797C398.9 106.135 398.691 106.572 398.691 107.105C398.691 107.678 398.906 108.134 399.336 108.473C399.766 108.798 400.339 108.961 401.055 108.961ZM398.066 114.312C396.061 114.312 394.349 113.694 392.93 112.457C391.51 111.207 390.801 109.632 390.801 107.73C390.801 105.673 391.562 104.085 393.086 102.965C394.622 101.832 396.842 101.174 399.746 100.992L404.473 100.699V99.6445C404.473 98.9414 404.232 98.3945 403.75 98.0039C403.268 97.6133 402.643 97.418 401.875 97.418C401.081 97.418 400.43 97.6068 399.922 97.9844C399.414 98.362 399.128 98.8372 399.062 99.4102H391.914C392.018 97.0924 392.995 95.263 394.844 93.9219C396.693 92.5677 399.18 91.8906 402.305 91.8906C405.286 91.8906 407.695 92.5742 409.531 93.9414C411.367 95.2956 412.285 97.0664 412.285 99.2539V114H404.473V111.109H404.316C403.77 112.125 402.917 112.913 401.758 113.473C400.612 114.033 399.382 114.312 398.066 114.312ZM429.902 92.125C432.611 92.125 434.694 93.082 436.152 94.9961C437.611 96.9102 438.34 99.651 438.34 103.219C438.34 106.773 437.617 109.514 436.172 111.441C434.727 113.355 432.669 114.312 430 114.312C428.424 114.312 427.07 113.961 425.938 113.258C424.805 112.542 423.984 111.546 423.477 110.27H423.32V120.895H415.312V92.4375H423.34V96.3242H423.477C423.997 94.9961 424.811 93.9674 425.918 93.2383C427.038 92.4961 428.366 92.125 429.902 92.125ZM424.219 106.832C424.831 107.704 425.664 108.141 426.719 108.141C427.773 108.141 428.607 107.698 429.219 106.812C429.831 105.927 430.137 104.729 430.137 103.219C430.137 101.721 429.824 100.53 429.199 99.6445C428.587 98.7461 427.76 98.2969 426.719 98.2969C425.677 98.2969 424.844 98.7461 424.219 99.6445C423.607 100.53 423.294 101.728 423.281 103.238C423.294 104.749 423.607 105.947 424.219 106.832ZM440.82 114V92.4375H448.828V114H440.82ZM447.656 90.1719C446.901 90.888 445.957 91.2461 444.824 91.2461C443.691 91.2461 442.741 90.888 441.973 90.1719C441.217 89.4427 440.84 88.5378 440.84 87.457C440.84 86.3763 441.217 85.4779 441.973 84.7617C442.741 84.0326 443.691 83.668 444.824 83.668C445.957 83.668 446.901 84.0326 447.656 84.7617C448.424 85.4779 448.809 86.3763 448.809 87.457C448.809 88.5378 448.424 89.4427 447.656 90.1719Z" fill="white"/>
<rect x="50" y="200" width="556" height="1" rx="0.5" fill="#EBEBEB"/>
<path d="M79.832 247.816H92.7031C95.8542 247.816 98.3867 248.747 100.301 250.609C102.228 252.471 103.191 254.965 103.191 258.09C103.191 261.176 102.176 263.65 100.145 265.512C98.1133 267.374 95.444 268.305 92.1367 268.305H88.1133V276H79.832V247.816ZM88.1133 254.047V262.191H90.4375C91.8307 262.191 92.9115 261.846 93.6797 261.156C94.4479 260.453 94.832 259.438 94.832 258.109C94.832 256.794 94.4479 255.792 93.6797 255.102C92.9245 254.398 91.8633 254.047 90.4961 254.047H88.1133ZM127.664 254.438V276H119.852V271.762H119.695C119.253 273.259 118.517 274.411 117.488 275.219C116.473 276.026 115.177 276.43 113.602 276.43C111.232 276.43 109.298 275.701 107.801 274.242C106.316 272.771 105.574 270.779 105.574 268.266V254.438H113.582V266.469C113.582 267.589 113.862 268.454 114.422 269.066C114.982 269.665 115.737 269.965 116.688 269.965C117.586 269.965 118.302 269.646 118.836 269.008C119.383 268.37 119.656 267.53 119.656 266.488V254.438H127.664ZM130.301 261.137C130.301 258.884 131.199 257.113 132.996 255.824C134.793 254.535 137.26 253.891 140.398 253.891C143.549 253.891 146.01 254.555 147.781 255.883C149.565 257.211 150.457 259.053 150.457 261.41H143.191C143.191 260.707 142.931 260.154 142.41 259.75C141.902 259.333 141.212 259.125 140.34 259.125C139.624 259.125 139.044 259.262 138.602 259.535C138.172 259.796 137.957 260.154 137.957 260.609C137.957 261.286 138.654 261.755 140.047 262.016L144.91 262.973C147.046 263.389 148.608 264.079 149.598 265.043C150.6 265.993 151.102 267.289 151.102 268.93C151.102 271.26 150.138 273.116 148.211 274.496C146.297 275.863 143.751 276.547 140.574 276.547C137.254 276.547 134.663 275.876 132.801 274.535C130.952 273.181 129.956 271.339 129.812 269.008H137.547C137.625 269.724 137.938 270.29 138.484 270.707C139.044 271.111 139.773 271.312 140.672 271.312C141.453 271.312 142.065 271.189 142.508 270.941C142.951 270.681 143.172 270.329 143.172 269.887C143.172 269.548 143.016 269.275 142.703 269.066C142.391 268.845 141.87 268.669 141.141 268.539L136.98 267.719C134.806 267.289 133.146 266.514 132 265.395C130.867 264.262 130.301 262.842 130.301 261.137ZM153.348 276V247.816H161.355V276H153.348ZM173.914 270.961C174.839 270.961 175.639 270.727 176.316 270.258C176.993 269.776 177.332 269.151 177.332 268.383V266.977L173.934 267.211C173.178 267.263 172.592 267.458 172.176 267.797C171.759 268.135 171.551 268.572 171.551 269.105C171.551 269.678 171.766 270.134 172.195 270.473C172.625 270.798 173.198 270.961 173.914 270.961ZM170.926 276.312C168.921 276.312 167.208 275.694 165.789 274.457C164.37 273.207 163.66 271.632 163.66 269.73C163.66 267.673 164.422 266.085 165.945 264.965C167.482 263.832 169.702 263.174 172.605 262.992L177.332 262.699V261.645C177.332 260.941 177.091 260.395 176.609 260.004C176.128 259.613 175.503 259.418 174.734 259.418C173.94 259.418 173.289 259.607 172.781 259.984C172.273 260.362 171.987 260.837 171.922 261.41H164.773C164.878 259.092 165.854 257.263 167.703 255.922C169.552 254.568 172.039 253.891 175.164 253.891C178.146 253.891 180.555 254.574 182.391 255.941C184.227 257.296 185.145 259.066 185.145 261.254V276H177.332V273.109H177.176C176.629 274.125 175.776 274.913 174.617 275.473C173.471 276.033 172.241 276.312 170.926 276.312ZM202.762 254.125C205.47 254.125 207.553 255.082 209.012 256.996C210.47 258.91 211.199 261.651 211.199 265.219C211.199 268.773 210.477 271.514 209.031 273.441C207.586 275.355 205.529 276.312 202.859 276.312C201.284 276.312 199.93 275.961 198.797 275.258C197.664 274.542 196.844 273.546 196.336 272.27H196.18V282.895H188.172V254.438H196.199V258.324H196.336C196.857 256.996 197.671 255.967 198.777 255.238C199.897 254.496 201.225 254.125 202.762 254.125ZM197.078 268.832C197.69 269.704 198.523 270.141 199.578 270.141C200.633 270.141 201.466 269.698 202.078 268.812C202.69 267.927 202.996 266.729 202.996 265.219C202.996 263.721 202.684 262.53 202.059 261.645C201.447 260.746 200.62 260.297 199.578 260.297C198.536 260.297 197.703 260.746 197.078 261.645C196.466 262.53 196.154 263.728 196.141 265.238C196.154 266.749 196.466 267.947 197.078 268.832ZM213.68 276V254.438H221.688V276H213.68ZM220.516 252.172C219.76 252.888 218.816 253.246 217.684 253.246C216.551 253.246 215.6 252.888 214.832 252.172C214.077 251.443 213.699 250.538 213.699 249.457C213.699 248.376 214.077 247.478 214.832 246.762C215.6 246.033 216.551 245.668 217.684 245.668C218.816 245.668 219.76 246.033 220.516 246.762C221.284 247.478 221.668 248.376 221.668 249.457C221.668 250.538 221.284 251.443 220.516 252.172ZM224.324 261.137C224.324 258.884 225.223 257.113 227.02 255.824C228.816 254.535 231.284 253.891 234.422 253.891C237.573 253.891 240.034 254.555 241.805 255.883C243.589 257.211 244.48 259.053 244.48 261.41H237.215C237.215 260.707 236.954 260.154 236.434 259.75C235.926 259.333 235.236 259.125 234.363 259.125C233.647 259.125 233.068 259.262 232.625 259.535C232.195 259.796 231.98 260.154 231.98 260.609C231.98 261.286 232.677 261.755 234.07 262.016L238.934 262.973C241.069 263.389 242.632 264.079 243.621 265.043C244.624 265.993 245.125 267.289 245.125 268.93C245.125 271.26 244.161 273.116 242.234 274.496C240.32 275.863 237.775 276.547 234.598 276.547C231.277 276.547 228.686 275.876 226.824 274.535C224.975 273.181 223.979 271.339 223.836 269.008H231.57C231.648 269.724 231.961 270.29 232.508 270.707C233.068 271.111 233.797 271.312 234.695 271.312C235.477 271.312 236.089 271.189 236.531 270.941C236.974 270.681 237.195 270.329 237.195 269.887C237.195 269.548 237.039 269.275 236.727 269.066C236.414 268.845 235.893 268.669 235.164 268.539L231.004 267.719C228.829 267.289 227.169 266.514 226.023 265.395C224.891 264.262 224.324 262.842 224.324 261.137ZM269.656 276.312C268.081 276.312 266.727 275.961 265.594 275.258C264.474 274.542 263.66 273.546 263.152 272.27H262.996V276H254.988V247.816H262.996V258.324H263.152C263.66 256.996 264.467 255.967 265.574 255.238C266.694 254.496 268.022 254.125 269.559 254.125C272.28 254.125 274.37 255.082 275.828 256.996C277.286 258.91 278.016 261.651 278.016 265.219C278.016 268.773 277.293 271.514 275.848 273.441C274.402 275.355 272.339 276.312 269.656 276.312ZM268.875 261.645C268.263 260.746 267.436 260.297 266.395 260.297C265.353 260.297 264.52 260.746 263.895 261.645C263.283 262.53 262.97 263.728 262.957 265.238C262.97 266.762 263.283 267.96 263.895 268.832C264.507 269.704 265.34 270.141 266.395 270.141C267.436 270.141 268.263 269.698 268.875 268.812C269.5 267.927 269.812 266.729 269.812 265.219C269.812 263.721 269.5 262.53 268.875 261.645ZM302.469 254.438V276H294.656V271.762H294.5C294.057 273.259 293.322 274.411 292.293 275.219C291.277 276.026 289.982 276.43 288.406 276.43C286.036 276.43 284.103 275.701 282.605 274.242C281.121 272.771 280.379 270.779 280.379 268.266V254.438H288.387V266.469C288.387 267.589 288.667 268.454 289.227 269.066C289.786 269.665 290.542 269.965 291.492 269.965C292.391 269.965 293.107 269.646 293.641 269.008C294.188 268.37 294.461 267.53 294.461 266.488V254.438H302.469ZM327.078 254.438L320.164 276H310.77L303.758 254.438H312.391L315.516 269.535H315.672L318.699 254.438H327.078ZM338.562 276.547C335.021 276.547 332.247 275.564 330.242 273.598C328.237 271.618 327.234 268.819 327.234 265.199C327.234 261.671 328.25 258.904 330.281 256.898C332.326 254.893 335.086 253.891 338.562 253.891C342.065 253.891 344.832 254.893 346.863 256.898C348.895 258.891 349.91 261.658 349.91 265.199C349.91 268.819 348.908 271.618 346.902 273.598C344.897 275.564 342.117 276.547 338.562 276.547ZM338.562 270.824C339.565 270.824 340.353 270.336 340.926 269.359C341.499 268.383 341.785 267.003 341.785 265.219C341.785 263.474 341.492 262.107 340.906 261.117C340.333 260.115 339.552 259.613 338.562 259.613C337.573 259.613 336.792 260.115 336.219 261.117C335.646 262.107 335.359 263.474 335.359 265.219C335.359 267.016 335.639 268.402 336.199 269.379C336.759 270.342 337.547 270.824 338.562 270.824ZM359.637 261.137C359.637 258.884 360.535 257.113 362.332 255.824C364.129 254.535 366.596 253.891 369.734 253.891C372.885 253.891 375.346 254.555 377.117 255.883C378.901 257.211 379.793 259.053 379.793 261.41H372.527C372.527 260.707 372.267 260.154 371.746 259.75C371.238 259.333 370.548 259.125 369.676 259.125C368.96 259.125 368.38 259.262 367.938 259.535C367.508 259.796 367.293 260.154 367.293 260.609C367.293 261.286 367.99 261.755 369.383 262.016L374.246 262.973C376.382 263.389 377.944 264.079 378.934 265.043C379.936 265.993 380.438 267.289 380.438 268.93C380.438 271.26 379.474 273.116 377.547 274.496C375.633 275.863 373.087 276.547 369.91 276.547C366.59 276.547 363.999 275.876 362.137 274.535C360.288 273.181 359.292 271.339 359.148 269.008H366.883C366.961 269.724 367.273 270.29 367.82 270.707C368.38 271.111 369.109 271.312 370.008 271.312C370.789 271.312 371.401 271.189 371.844 270.941C372.286 270.681 372.508 270.329 372.508 269.887C372.508 269.548 372.352 269.275 372.039 269.066C371.727 268.845 371.206 268.669 370.477 268.539L366.316 267.719C364.142 267.289 362.482 266.514 361.336 265.395C360.203 264.262 359.637 262.842 359.637 261.137ZM404.578 254.438V276H396.766V271.762H396.609C396.167 273.259 395.431 274.411 394.402 275.219C393.387 276.026 392.091 276.43 390.516 276.43C388.146 276.43 386.212 275.701 384.715 274.242C383.23 272.771 382.488 270.779 382.488 268.266V254.438H390.496V266.469C390.496 267.589 390.776 268.454 391.336 269.066C391.896 269.665 392.651 269.965 393.602 269.965C394.5 269.965 395.216 269.646 395.75 269.008C396.297 268.37 396.57 267.53 396.57 266.488V254.438H404.578ZM415.848 262.23L421.082 254.438H429.891L422.723 263.637L430.398 276H421.199L416.746 268.422L415.691 269.828V276H407.684V247.816H415.691V262.23H415.848ZM441.023 276.547C437.482 276.547 434.708 275.564 432.703 273.598C430.698 271.618 429.695 268.819 429.695 265.199C429.695 261.671 430.711 258.904 432.742 256.898C434.786 254.893 437.547 253.891 441.023 253.891C444.526 253.891 447.293 254.893 449.324 256.898C451.355 258.891 452.371 261.658 452.371 265.199C452.371 268.819 451.368 271.618 449.363 273.598C447.358 275.564 444.578 276.547 441.023 276.547ZM441.023 270.824C442.026 270.824 442.814 270.336 443.387 269.359C443.96 268.383 444.246 267.003 444.246 265.219C444.246 263.474 443.953 262.107 443.367 261.117C442.794 260.115 442.013 259.613 441.023 259.613C440.034 259.613 439.253 260.115 438.68 261.117C438.107 262.107 437.82 263.474 437.82 265.219C437.82 267.016 438.1 268.402 438.66 269.379C439.22 270.342 440.008 270.824 441.023 270.824ZM462.703 276.312C460.047 276.312 457.983 275.336 456.512 273.383C455.04 271.417 454.305 268.676 454.305 265.16C454.305 261.697 455.053 258.995 456.551 257.055C458.061 255.102 460.158 254.125 462.84 254.125C464.376 254.125 465.704 254.516 466.824 255.297C467.957 256.065 468.738 257.074 469.168 258.324H469.324V247.816H477.332V276H469.324V272.27H469.168C468.79 273.428 468.009 274.392 466.824 275.16C465.652 275.928 464.279 276.312 462.703 276.312ZM468.445 261.605C467.833 260.733 466.993 260.297 465.926 260.297C464.858 260.297 464.018 260.74 463.406 261.625C462.807 262.497 462.508 263.695 462.508 265.219C462.508 266.768 462.807 267.979 463.406 268.852C464.005 269.711 464.845 270.141 465.926 270.141C467.007 270.141 467.846 269.711 468.445 268.852C469.057 267.992 469.363 266.788 469.363 265.238C469.363 263.689 469.057 262.478 468.445 261.605ZM502.352 254.438V276H494.539V271.762H494.383C493.94 273.259 493.204 274.411 492.176 275.219C491.16 276.026 489.865 276.43 488.289 276.43C485.919 276.43 483.986 275.701 482.488 274.242C481.004 272.771 480.262 270.779 480.262 268.266V254.438H488.27V266.469C488.27 267.589 488.549 268.454 489.109 269.066C489.669 269.665 490.424 269.965 491.375 269.965C492.273 269.965 492.99 269.646 493.523 269.008C494.07 268.37 494.344 267.53 494.344 266.488V254.438H502.352ZM516.141 276.547C512.599 276.547 509.826 275.564 507.82 273.598C505.815 271.618 504.812 268.819 504.812 265.199C504.812 261.671 505.828 258.904 507.859 256.898C509.904 254.893 512.664 253.891 516.141 253.891C519.643 253.891 522.41 254.893 524.441 256.898C526.473 258.891 527.488 261.658 527.488 265.199C527.488 268.819 526.486 271.618 524.48 273.598C522.475 275.564 519.695 276.547 516.141 276.547ZM516.141 270.824C517.143 270.824 517.931 270.336 518.504 269.359C519.077 268.383 519.363 267.003 519.363 265.219C519.363 263.474 519.07 262.107 518.484 261.117C517.911 260.115 517.13 259.613 516.141 259.613C515.151 259.613 514.37 260.115 513.797 261.117C513.224 262.107 512.938 263.474 512.938 265.219C512.938 267.016 513.217 268.402 513.777 269.379C514.337 270.342 515.125 270.824 516.141 270.824ZM531.902 249.711H539.91V254.438H543.699V260.238H539.91V268.207C539.91 269.574 540.717 270.258 542.332 270.258C542.853 270.258 543.309 270.225 543.699 270.16V275.707C542.749 275.902 541.648 276 540.398 276C537.365 276 535.19 275.531 533.875 274.594C532.56 273.656 531.902 272.12 531.902 269.984V260.238H529.051V254.438H531.902V249.711ZM555.789 270.961C556.714 270.961 557.514 270.727 558.191 270.258C558.868 269.776 559.207 269.151 559.207 268.383V266.977L555.809 267.211C555.053 267.263 554.467 267.458 554.051 267.797C553.634 268.135 553.426 268.572 553.426 269.105C553.426 269.678 553.641 270.134 554.07 270.473C554.5 270.798 555.073 270.961 555.789 270.961ZM552.801 276.312C550.796 276.312 549.083 275.694 547.664 274.457C546.245 273.207 545.535 271.632 545.535 269.73C545.535 267.673 546.297 266.085 547.82 264.965C549.357 263.832 551.577 263.174 554.48 262.992L559.207 262.699V261.645C559.207 260.941 558.966 260.395 558.484 260.004C558.003 259.613 557.378 259.418 556.609 259.418C555.815 259.418 555.164 259.607 554.656 259.984C554.148 260.362 553.862 260.837 553.797 261.41H546.648C546.753 259.092 547.729 257.263 549.578 255.922C551.427 254.568 553.914 253.891 557.039 253.891C560.021 253.891 562.43 254.574 564.266 255.941C566.102 257.296 567.02 259.066 567.02 261.254V276H559.207V273.109H559.051C558.504 274.125 557.651 274.913 556.492 275.473C555.346 276.033 554.116 276.312 552.801 276.312ZM569.676 261.137C569.676 258.884 570.574 257.113 572.371 255.824C574.168 254.535 576.635 253.891 579.773 253.891C582.924 253.891 585.385 254.555 587.156 255.883C588.94 257.211 589.832 259.053 589.832 261.41H582.566C582.566 260.707 582.306 260.154 581.785 259.75C581.277 259.333 580.587 259.125 579.715 259.125C578.999 259.125 578.419 259.262 577.977 259.535C577.547 259.796 577.332 260.154 577.332 260.609C577.332 261.286 578.029 261.755 579.422 262.016L584.285 262.973C586.421 263.389 587.983 264.079 588.973 265.043C589.975 265.993 590.477 267.289 590.477 268.93C590.477 271.26 589.513 273.116 587.586 274.496C585.672 275.863 583.126 276.547 579.949 276.547C576.629 276.547 574.038 275.876 572.176 274.535C570.327 273.181 569.331 271.339 569.188 269.008H576.922C577 269.724 577.312 270.29 577.859 270.707C578.419 271.111 579.148 271.312 580.047 271.312C580.828 271.312 581.44 271.189 581.883 270.941C582.326 270.681 582.547 270.329 582.547 269.887C582.547 269.548 582.391 269.275 582.078 269.066C581.766 268.845 581.245 268.669 580.516 268.539L576.355 267.719C574.181 267.289 572.521 266.514 571.375 265.395C570.242 264.262 569.676 262.842 569.676 261.137ZM242.488 324H234.207V313.102H224.285V324H216.004V295.816H224.285V306.52H234.207V295.816H242.488V324ZM261.023 324H252.742V302.398H245.32V295.816H268.445V302.398H261.023V324ZM303.172 324H295.945V307.672H295.789L289.441 323.668H285.008L278.66 307.672H278.504V324H271.277V295.816H280.848L287.156 312.262H287.312L293.602 295.816H303.172V324ZM326.434 317.418V324H307.098V295.816H315.379V317.418H326.434ZM344.988 310.23L350.223 302.438H359.031L351.863 311.637L359.539 324H350.34L345.887 316.422L344.832 317.828V324H336.824V295.816H344.832V310.23H344.988ZM369.617 318.961C370.542 318.961 371.342 318.727 372.02 318.258C372.697 317.776 373.035 317.151 373.035 316.383V314.977L369.637 315.211C368.882 315.263 368.296 315.458 367.879 315.797C367.462 316.135 367.254 316.572 367.254 317.105C367.254 317.678 367.469 318.134 367.898 318.473C368.328 318.798 368.901 318.961 369.617 318.961ZM366.629 324.312C364.624 324.312 362.911 323.694 361.492 322.457C360.073 321.207 359.363 319.632 359.363 317.73C359.363 315.673 360.125 314.085 361.648 312.965C363.185 311.832 365.405 311.174 368.309 310.992L373.035 310.699V309.645C373.035 308.941 372.794 308.395 372.312 308.004C371.831 307.613 371.206 307.418 370.438 307.418C369.643 307.418 368.992 307.607 368.484 307.984C367.977 308.362 367.69 308.837 367.625 309.41H360.477C360.581 307.092 361.557 305.263 363.406 303.922C365.255 302.568 367.742 301.891 370.867 301.891C373.849 301.891 376.258 302.574 378.094 303.941C379.93 305.296 380.848 307.066 380.848 309.254V324H373.035V321.109H372.879C372.332 322.125 371.479 322.913 370.32 323.473C369.174 324.033 367.944 324.312 366.629 324.312ZM383.973 324V295.816H391.98V324H383.973ZM409.852 324.312C408.276 324.312 406.922 323.961 405.789 323.258C404.669 322.542 403.855 321.546 403.348 320.27H403.191V324H395.184V295.816H403.191V306.324H403.348C403.855 304.996 404.663 303.967 405.77 303.238C406.889 302.496 408.217 302.125 409.754 302.125C412.475 302.125 414.565 303.082 416.023 304.996C417.482 306.91 418.211 309.651 418.211 313.219C418.211 316.773 417.488 319.514 416.043 321.441C414.598 323.355 412.534 324.312 409.852 324.312ZM409.07 309.645C408.458 308.746 407.632 308.297 406.59 308.297C405.548 308.297 404.715 308.746 404.09 309.645C403.478 310.53 403.165 311.728 403.152 313.238C403.165 314.762 403.478 315.96 404.09 316.832C404.702 317.704 405.535 318.141 406.59 318.141C407.632 318.141 408.458 317.698 409.07 316.812C409.695 315.927 410.008 314.729 410.008 313.219C410.008 311.721 409.695 310.53 409.07 309.645ZM430.125 318.961C431.049 318.961 431.85 318.727 432.527 318.258C433.204 317.776 433.543 317.151 433.543 316.383V314.977L430.145 315.211C429.389 315.263 428.803 315.458 428.387 315.797C427.97 316.135 427.762 316.572 427.762 317.105C427.762 317.678 427.977 318.134 428.406 318.473C428.836 318.798 429.409 318.961 430.125 318.961ZM427.137 324.312C425.132 324.312 423.419 323.694 422 322.457C420.581 321.207 419.871 319.632 419.871 317.73C419.871 315.673 420.633 314.085 422.156 312.965C423.693 311.832 425.913 311.174 428.816 310.992L433.543 310.699V309.645C433.543 308.941 433.302 308.395 432.82 308.004C432.339 307.613 431.714 307.418 430.945 307.418C430.151 307.418 429.5 307.607 428.992 307.984C428.484 308.362 428.198 308.837 428.133 309.41H420.984C421.089 307.092 422.065 305.263 423.914 303.922C425.763 302.568 428.25 301.891 431.375 301.891C434.357 301.891 436.766 302.574 438.602 303.941C440.438 305.296 441.355 307.066 441.355 309.254V324H433.543V321.109H433.387C432.84 322.125 431.987 322.913 430.828 323.473C429.682 324.033 428.452 324.312 427.137 324.312ZM451.785 323.082C450.991 323.876 450.034 324.273 448.914 324.273C447.794 324.273 446.837 323.876 446.043 323.082C445.249 322.288 444.852 321.331 444.852 320.211C444.852 319.091 445.249 318.134 446.043 317.34C446.837 316.546 447.794 316.148 448.914 316.148C450.034 316.148 450.991 316.546 451.785 317.34C452.579 318.134 452.977 319.091 452.977 320.211C452.977 321.331 452.579 322.288 451.785 323.082ZM73.0742 343.816H85.125C89.4349 343.816 92.7747 345.014 95.1445 347.41C97.5143 349.793 98.6992 353.224 98.6992 357.703C98.6992 362.208 97.5013 365.717 95.1055 368.23C92.7227 370.743 89.3958 372 85.125 372H73.0742V343.816ZM81.3555 350.398V365.418H83.9531C88.1589 365.418 90.2617 362.846 90.2617 357.703C90.2617 355.346 89.7083 353.543 88.6016 352.293C87.5078 351.03 85.9583 350.398 83.9531 350.398H81.3555ZM112.137 355.398C111.225 355.398 110.457 355.698 109.832 356.297C109.207 356.896 108.855 357.658 108.777 358.582H115.496C115.431 357.618 115.086 356.85 114.461 356.277C113.849 355.691 113.074 355.398 112.137 355.398ZM115.73 365.008H122.859C122.521 367.339 121.401 369.181 119.5 370.535C117.599 371.876 115.171 372.547 112.215 372.547C108.686 372.547 105.926 371.557 103.934 369.578C101.941 367.586 100.945 364.839 100.945 361.336C100.945 357.807 101.935 355.021 103.914 352.977C105.893 350.919 108.576 349.891 111.961 349.891C115.307 349.891 117.977 350.88 119.969 352.859C121.961 354.826 122.957 357.456 122.957 360.75V362.918H108.66V363.426C108.66 364.48 109.005 365.353 109.695 366.043C110.385 366.72 111.264 367.059 112.332 367.059C113.152 367.059 113.862 366.876 114.461 366.512C115.073 366.147 115.496 365.646 115.73 365.008ZM125.027 357.137C125.027 354.884 125.926 353.113 127.723 351.824C129.52 350.535 131.987 349.891 135.125 349.891C138.276 349.891 140.737 350.555 142.508 351.883C144.292 353.211 145.184 355.053 145.184 357.41H137.918C137.918 356.707 137.658 356.154 137.137 355.75C136.629 355.333 135.939 355.125 135.066 355.125C134.35 355.125 133.771 355.262 133.328 355.535C132.898 355.796 132.684 356.154 132.684 356.609C132.684 357.286 133.38 357.755 134.773 358.016L139.637 358.973C141.772 359.389 143.335 360.079 144.324 361.043C145.327 361.993 145.828 363.289 145.828 364.93C145.828 367.26 144.865 369.116 142.938 370.496C141.023 371.863 138.478 372.547 135.301 372.547C131.98 372.547 129.389 371.876 127.527 370.535C125.678 369.181 124.682 367.339 124.539 365.008H132.273C132.352 365.724 132.664 366.29 133.211 366.707C133.771 367.111 134.5 367.312 135.398 367.312C136.18 367.312 136.792 367.189 137.234 366.941C137.677 366.681 137.898 366.329 137.898 365.887C137.898 365.548 137.742 365.275 137.43 365.066C137.117 364.845 136.596 364.669 135.867 364.539L131.707 363.719C129.533 363.289 127.872 362.514 126.727 361.395C125.594 360.262 125.027 358.842 125.027 357.137ZM147.977 372V350.438H155.984V372H147.977ZM154.812 348.172C154.057 348.888 153.113 349.246 151.98 349.246C150.848 349.246 149.897 348.888 149.129 348.172C148.374 347.443 147.996 346.538 147.996 345.457C147.996 344.376 148.374 343.478 149.129 342.762C149.897 342.033 150.848 341.668 151.98 341.668C153.113 341.668 154.057 342.033 154.812 342.762C155.581 343.478 155.965 344.376 155.965 345.457C155.965 346.538 155.581 347.443 154.812 348.172ZM167.527 364.734C168.126 365.542 168.973 365.945 170.066 365.945C171.16 365.945 172.007 365.548 172.605 364.754C173.204 363.947 173.504 362.775 173.504 361.238C173.504 359.702 173.198 358.497 172.586 357.625C171.974 356.74 171.134 356.297 170.066 356.297C168.999 356.297 168.159 356.74 167.547 357.625C166.948 358.497 166.648 359.695 166.648 361.219C166.648 362.755 166.941 363.927 167.527 364.734ZM169.754 380.125C166.551 380.125 163.986 379.493 162.059 378.23C160.145 376.98 159.103 375.333 158.934 373.289H166.629C166.746 373.81 167.104 374.233 167.703 374.559C168.302 374.897 169.044 375.066 169.93 375.066C171.089 375.066 171.967 374.793 172.566 374.246C173.165 373.699 173.465 372.957 173.465 372.02V367.879H173.309C172.957 369.025 172.195 369.956 171.023 370.672C169.852 371.375 168.465 371.727 166.863 371.727C164.298 371.727 162.254 370.802 160.73 368.953C159.207 367.091 158.445 364.493 158.445 361.16C158.445 357.697 159.194 354.995 160.691 353.055C162.202 351.102 164.298 350.125 166.98 350.125C168.517 350.125 169.845 350.516 170.965 351.297C172.098 352.065 172.879 353.074 173.309 354.324H173.465V350.438H181.473V371.824C181.473 374.363 180.392 376.382 178.23 377.879C176.082 379.376 173.257 380.125 169.754 380.125ZM184.5 372V350.438H192.312V354.676H192.469C193.016 353.152 193.849 351.993 194.969 351.199C196.089 350.405 197.462 350.008 199.09 350.008C201.499 350.008 203.348 350.724 204.637 352.156C205.939 353.576 206.59 355.587 206.59 358.191V372H198.582V359.969C198.582 358.862 198.322 358.003 197.801 357.391C197.293 356.779 196.544 356.473 195.555 356.473C194.617 356.473 193.875 356.798 193.328 357.449C192.781 358.087 192.508 358.921 192.508 359.949V372H184.5ZM218.953 366.961C219.878 366.961 220.678 366.727 221.355 366.258C222.033 365.776 222.371 365.151 222.371 364.383V362.977L218.973 363.211C218.217 363.263 217.632 363.458 217.215 363.797C216.798 364.135 216.59 364.572 216.59 365.105C216.59 365.678 216.805 366.134 217.234 366.473C217.664 366.798 218.237 366.961 218.953 366.961ZM215.965 372.312C213.96 372.312 212.247 371.694 210.828 370.457C209.409 369.207 208.699 367.632 208.699 365.73C208.699 363.673 209.461 362.085 210.984 360.965C212.521 359.832 214.741 359.174 217.645 358.992L222.371 358.699V357.645C222.371 356.941 222.13 356.395 221.648 356.004C221.167 355.613 220.542 355.418 219.773 355.418C218.979 355.418 218.328 355.607 217.82 355.984C217.312 356.362 217.026 356.837 216.961 357.41H209.812C209.917 355.092 210.893 353.263 212.742 351.922C214.591 350.568 217.078 349.891 220.203 349.891C223.185 349.891 225.594 350.574 227.43 351.941C229.266 353.296 230.184 355.066 230.184 357.254V372H222.371V369.109H222.215C221.668 370.125 220.815 370.913 219.656 371.473C218.51 372.033 217.28 372.312 215.965 372.312ZM232.84 357.137C232.84 354.884 233.738 353.113 235.535 351.824C237.332 350.535 239.799 349.891 242.938 349.891C246.089 349.891 248.549 350.555 250.32 351.883C252.104 353.211 252.996 355.053 252.996 357.41H245.73C245.73 356.707 245.47 356.154 244.949 355.75C244.441 355.333 243.751 355.125 242.879 355.125C242.163 355.125 241.583 355.262 241.141 355.535C240.711 355.796 240.496 356.154 240.496 356.609C240.496 357.286 241.193 357.755 242.586 358.016L247.449 358.973C249.585 359.389 251.147 360.079 252.137 361.043C253.139 361.993 253.641 363.289 253.641 364.93C253.641 367.26 252.677 369.116 250.75 370.496C248.836 371.863 246.29 372.547 243.113 372.547C239.793 372.547 237.202 371.876 235.34 370.535C233.491 369.181 232.495 367.339 232.352 365.008H240.086C240.164 365.724 240.477 366.29 241.023 366.707C241.583 367.111 242.312 367.312 243.211 367.312C243.992 367.312 244.604 367.189 245.047 366.941C245.49 366.681 245.711 366.329 245.711 365.887C245.711 365.548 245.555 365.275 245.242 365.066C244.93 364.845 244.409 364.669 243.68 364.539L239.52 363.719C237.345 363.289 235.685 362.514 234.539 361.395C233.406 360.262 232.84 358.842 232.84 357.137ZM278.172 372.312C276.596 372.312 275.242 371.961 274.109 371.258C272.99 370.542 272.176 369.546 271.668 368.27H271.512V372H263.504V343.816H271.512V354.324H271.668C272.176 352.996 272.983 351.967 274.09 351.238C275.21 350.496 276.538 350.125 278.074 350.125C280.796 350.125 282.885 351.082 284.344 352.996C285.802 354.91 286.531 357.651 286.531 361.219C286.531 364.773 285.809 367.514 284.363 369.441C282.918 371.355 280.854 372.312 278.172 372.312ZM277.391 357.645C276.779 356.746 275.952 356.297 274.91 356.297C273.868 356.297 273.035 356.746 272.41 357.645C271.798 358.53 271.486 359.728 271.473 361.238C271.486 362.762 271.798 363.96 272.41 364.832C273.022 365.704 273.855 366.141 274.91 366.141C275.952 366.141 276.779 365.698 277.391 364.812C278.016 363.927 278.328 362.729 278.328 361.219C278.328 359.721 278.016 358.53 277.391 357.645ZM310.984 350.438V372H303.172V367.762H303.016C302.573 369.259 301.837 370.411 300.809 371.219C299.793 372.026 298.497 372.43 296.922 372.43C294.552 372.43 292.618 371.701 291.121 370.242C289.637 368.771 288.895 366.779 288.895 364.266V350.438H296.902V362.469C296.902 363.589 297.182 364.454 297.742 365.066C298.302 365.665 299.057 365.965 300.008 365.965C300.906 365.965 301.622 365.646 302.156 365.008C302.703 364.37 302.977 363.53 302.977 362.488V350.438H310.984ZM335.594 350.438L328.68 372H319.285L312.273 350.438H320.906L324.031 365.535H324.188L327.215 350.438H335.594ZM347.078 372.547C343.536 372.547 340.763 371.564 338.758 369.598C336.753 367.618 335.75 364.819 335.75 361.199C335.75 357.671 336.766 354.904 338.797 352.898C340.841 350.893 343.602 349.891 347.078 349.891C350.581 349.891 353.348 350.893 355.379 352.898C357.41 354.891 358.426 357.658 358.426 361.199C358.426 364.819 357.423 367.618 355.418 369.598C353.413 371.564 350.633 372.547 347.078 372.547ZM347.078 366.824C348.081 366.824 348.868 366.336 349.441 365.359C350.014 364.383 350.301 363.003 350.301 361.219C350.301 359.474 350.008 358.107 349.422 357.117C348.849 356.115 348.068 355.613 347.078 355.613C346.089 355.613 345.307 356.115 344.734 357.117C344.161 358.107 343.875 359.474 343.875 361.219C343.875 363.016 344.155 364.402 344.715 365.379C345.275 366.342 346.062 366.824 347.078 366.824ZM368.152 357.137C368.152 354.884 369.051 353.113 370.848 351.824C372.645 350.535 375.112 349.891 378.25 349.891C381.401 349.891 383.862 350.555 385.633 351.883C387.417 353.211 388.309 355.053 388.309 357.41H381.043C381.043 356.707 380.783 356.154 380.262 355.75C379.754 355.333 379.064 355.125 378.191 355.125C377.475 355.125 376.896 355.262 376.453 355.535C376.023 355.796 375.809 356.154 375.809 356.609C375.809 357.286 376.505 357.755 377.898 358.016L382.762 358.973C384.897 359.389 386.46 360.079 387.449 361.043C388.452 361.993 388.953 363.289 388.953 364.93C388.953 367.26 387.99 369.116 386.062 370.496C384.148 371.863 381.603 372.547 378.426 372.547C375.105 372.547 372.514 371.876 370.652 370.535C368.803 369.181 367.807 367.339 367.664 365.008H375.398C375.477 365.724 375.789 366.29 376.336 366.707C376.896 367.111 377.625 367.312 378.523 367.312C379.305 367.312 379.917 367.189 380.359 366.941C380.802 366.681 381.023 366.329 381.023 365.887C381.023 365.548 380.867 365.275 380.555 365.066C380.242 364.845 379.721 364.669 378.992 364.539L374.832 363.719C372.658 363.289 370.997 362.514 369.852 361.395C368.719 360.262 368.152 358.842 368.152 357.137ZM413.094 350.438V372H405.281V367.762H405.125C404.682 369.259 403.947 370.411 402.918 371.219C401.902 372.026 400.607 372.43 399.031 372.43C396.661 372.43 394.728 371.701 393.23 370.242C391.746 368.771 391.004 366.779 391.004 364.266V350.438H399.012V362.469C399.012 363.589 399.292 364.454 399.852 365.066C400.411 365.665 401.167 365.965 402.117 365.965C403.016 365.965 403.732 365.646 404.266 365.008C404.812 364.37 405.086 363.53 405.086 362.488V350.438H413.094ZM424.363 358.23L429.598 350.438H438.406L431.238 359.637L438.914 372H429.715L425.262 364.422L424.207 365.828V372H416.199V343.816H424.207V358.23H424.363ZM461.727 350.438V372H453.914V367.762H453.758C453.315 369.259 452.579 370.411 451.551 371.219C450.535 372.026 449.24 372.43 447.664 372.43C445.294 372.43 443.361 371.701 441.863 370.242C440.379 368.771 439.637 366.779 439.637 364.266V350.438H447.645V362.469C447.645 363.589 447.924 364.454 448.484 365.066C449.044 365.665 449.799 365.965 450.75 365.965C451.648 365.965 452.365 365.646 452.898 365.008C453.445 364.37 453.719 363.53 453.719 362.488V350.438H461.727ZM464.734 372V350.438H472.547V354.676H472.703C473.51 351.642 475.19 350.125 477.742 350.125C478.432 350.125 479.057 350.229 479.617 350.438V357.156C478.914 356.857 478.139 356.707 477.293 356.707C474.259 356.707 472.742 358.224 472.742 361.258V372H464.734ZM483.465 345.711H491.473V350.438H495.262V356.238H491.473V364.207C491.473 365.574 492.28 366.258 493.895 366.258C494.415 366.258 494.871 366.225 495.262 366.16V371.707C494.311 371.902 493.211 372 491.961 372C488.927 372 486.753 371.531 485.438 370.594C484.122 369.656 483.465 368.12 483.465 365.984V356.238H480.613V350.438H483.465V345.711ZM507.352 366.961C508.276 366.961 509.077 366.727 509.754 366.258C510.431 365.776 510.77 365.151 510.77 364.383V362.977L507.371 363.211C506.616 363.263 506.03 363.458 505.613 363.797C505.197 364.135 504.988 364.572 504.988 365.105C504.988 365.678 505.203 366.134 505.633 366.473C506.062 366.798 506.635 366.961 507.352 366.961ZM504.363 372.312C502.358 372.312 500.646 371.694 499.227 370.457C497.807 369.207 497.098 367.632 497.098 365.73C497.098 363.673 497.859 362.085 499.383 360.965C500.919 359.832 503.139 359.174 506.043 358.992L510.77 358.699V357.645C510.77 356.941 510.529 356.395 510.047 356.004C509.565 355.613 508.94 355.418 508.172 355.418C507.378 355.418 506.727 355.607 506.219 355.984C505.711 356.362 505.424 356.837 505.359 357.41H498.211C498.315 355.092 499.292 353.263 501.141 351.922C502.99 350.568 505.477 349.891 508.602 349.891C511.583 349.891 513.992 350.574 515.828 351.941C517.664 353.296 518.582 355.066 518.582 357.254V372H510.77V369.109H510.613C510.066 370.125 509.214 370.913 508.055 371.473C506.909 372.033 505.678 372.312 504.363 372.312ZM521.238 357.137C521.238 354.884 522.137 353.113 523.934 351.824C525.73 350.535 528.198 349.891 531.336 349.891C534.487 349.891 536.948 350.555 538.719 351.883C540.503 353.211 541.395 355.053 541.395 357.41H534.129C534.129 356.707 533.868 356.154 533.348 355.75C532.84 355.333 532.15 355.125 531.277 355.125C530.561 355.125 529.982 355.262 529.539 355.535C529.109 355.796 528.895 356.154 528.895 356.609C528.895 357.286 529.591 357.755 530.984 358.016L535.848 358.973C537.983 359.389 539.546 360.079 540.535 361.043C541.538 361.993 542.039 363.289 542.039 364.93C542.039 367.26 541.076 369.116 539.148 370.496C537.234 371.863 534.689 372.547 531.512 372.547C528.191 372.547 525.6 371.876 523.738 370.535C521.889 369.181 520.893 367.339 520.75 365.008H528.484C528.562 365.724 528.875 366.29 529.422 366.707C529.982 367.111 530.711 367.312 531.609 367.312C532.391 367.312 533.003 367.189 533.445 366.941C533.888 366.681 534.109 366.329 534.109 365.887C534.109 365.548 533.953 365.275 533.641 365.066C533.328 364.845 532.807 364.669 532.078 364.539L527.918 363.719C525.743 363.289 524.083 362.514 522.938 361.395C521.805 360.262 521.238 358.842 521.238 357.137ZM551.434 357.137C551.434 354.884 552.332 353.113 554.129 351.824C555.926 350.535 558.393 349.891 561.531 349.891C564.682 349.891 567.143 350.555 568.914 351.883C570.698 353.211 571.59 355.053 571.59 357.41H564.324C564.324 356.707 564.064 356.154 563.543 355.75C563.035 355.333 562.345 355.125 561.473 355.125C560.757 355.125 560.177 355.262 559.734 355.535C559.305 355.796 559.09 356.154 559.09 356.609C559.09 357.286 559.786 357.755 561.18 358.016L566.043 358.973C568.178 359.389 569.741 360.079 570.73 361.043C571.733 361.993 572.234 363.289 572.234 364.93C572.234 367.26 571.271 369.116 569.344 370.496C567.43 371.863 564.884 372.547 561.707 372.547C558.387 372.547 555.796 371.876 553.934 370.535C552.085 369.181 551.089 367.339 550.945 365.008H558.68C558.758 365.724 559.07 366.29 559.617 366.707C560.177 367.111 560.906 367.312 561.805 367.312C562.586 367.312 563.198 367.189 563.641 366.941C564.083 366.681 564.305 366.329 564.305 365.887C564.305 365.548 564.148 365.275 563.836 365.066C563.523 364.845 563.003 364.669 562.273 364.539L558.113 363.719C555.939 363.289 554.279 362.514 553.133 361.395C552 360.262 551.434 358.842 551.434 357.137ZM596.375 350.438V372H588.562V367.762H588.406C587.964 369.259 587.228 370.411 586.199 371.219C585.184 372.026 583.888 372.43 582.312 372.43C579.943 372.43 578.009 371.701 576.512 370.242C575.027 368.771 574.285 366.779 574.285 364.266V350.438H582.293V362.469C582.293 363.589 582.573 364.454 583.133 365.066C583.693 365.665 584.448 365.965 585.398 365.965C586.297 365.965 587.013 365.646 587.547 365.008C588.094 364.37 588.367 363.53 588.367 362.488V350.438H596.375ZM181.062 420V404.238H178.211V398.633H181.062V397.734C181.062 395.534 181.681 393.945 182.918 392.969C184.155 391.979 186.277 391.484 189.285 391.484C190.73 391.484 191.98 391.595 193.035 391.816V396.602C192.645 396.523 192.137 396.484 191.512 396.484C189.728 396.484 188.836 397.031 188.836 398.125V398.633H192.977V404.238H189.07V420H181.062ZM195.457 420V398.438H203.465V420H195.457ZM202.293 396.172C201.538 396.888 200.594 397.246 199.461 397.246C198.328 397.246 197.378 396.888 196.609 396.172C195.854 395.443 195.477 394.538 195.477 393.457C195.477 392.376 195.854 391.478 196.609 390.762C197.378 390.033 198.328 389.668 199.461 389.668C200.594 389.668 201.538 390.033 202.293 390.762C203.061 391.478 203.445 392.376 203.445 393.457C203.445 394.538 203.061 395.443 202.293 396.172ZM215.008 412.734C215.607 413.542 216.453 413.945 217.547 413.945C218.641 413.945 219.487 413.548 220.086 412.754C220.685 411.947 220.984 410.775 220.984 409.238C220.984 407.702 220.678 406.497 220.066 405.625C219.454 404.74 218.615 404.297 217.547 404.297C216.479 404.297 215.639 404.74 215.027 405.625C214.428 406.497 214.129 407.695 214.129 409.219C214.129 410.755 214.422 411.927 215.008 412.734ZM217.234 428.125C214.031 428.125 211.466 427.493 209.539 426.23C207.625 424.98 206.583 423.333 206.414 421.289H214.109C214.227 421.81 214.585 422.233 215.184 422.559C215.783 422.897 216.525 423.066 217.41 423.066C218.569 423.066 219.448 422.793 220.047 422.246C220.646 421.699 220.945 420.957 220.945 420.02V415.879H220.789C220.438 417.025 219.676 417.956 218.504 418.672C217.332 419.375 215.945 419.727 214.344 419.727C211.779 419.727 209.734 418.802 208.211 416.953C206.688 415.091 205.926 412.493 205.926 409.16C205.926 405.697 206.674 402.995 208.172 401.055C209.682 399.102 211.779 398.125 214.461 398.125C215.997 398.125 217.326 398.516 218.445 399.297C219.578 400.065 220.359 401.074 220.789 402.324H220.945V398.438H228.953V419.824C228.953 422.363 227.872 424.382 225.711 425.879C223.562 427.376 220.737 428.125 217.234 428.125ZM231.98 420V398.438H239.793V402.793H239.949C240.353 401.335 241.115 400.176 242.234 399.316C243.354 398.444 244.65 398.008 246.121 398.008C247.762 398.008 249.103 398.424 250.145 399.258C251.199 400.078 251.857 401.243 252.117 402.754H252.273C252.638 401.322 253.419 400.176 254.617 399.316C255.828 398.444 257.254 398.008 258.895 398.008C260.991 398.008 262.697 398.698 264.012 400.078C265.327 401.445 265.984 403.229 265.984 405.43V420H257.977V407.5C257.977 405.456 257.104 404.434 255.359 404.434C254.552 404.434 253.921 404.707 253.465 405.254C253.009 405.788 252.781 406.53 252.781 407.48V420H245.184V407.52C245.184 405.462 244.318 404.434 242.586 404.434C241.779 404.434 241.141 404.707 240.672 405.254C240.216 405.801 239.988 406.543 239.988 407.48V420H231.98ZM278.387 414.961C279.311 414.961 280.112 414.727 280.789 414.258C281.466 413.776 281.805 413.151 281.805 412.383V410.977L278.406 411.211C277.651 411.263 277.065 411.458 276.648 411.797C276.232 412.135 276.023 412.572 276.023 413.105C276.023 413.678 276.238 414.134 276.668 414.473C277.098 414.798 277.671 414.961 278.387 414.961ZM275.398 420.312C273.393 420.312 271.681 419.694 270.262 418.457C268.842 417.207 268.133 415.632 268.133 413.73C268.133 411.673 268.895 410.085 270.418 408.965C271.954 407.832 274.174 407.174 277.078 406.992L281.805 406.699V405.645C281.805 404.941 281.564 404.395 281.082 404.004C280.6 403.613 279.975 403.418 279.207 403.418C278.413 403.418 277.762 403.607 277.254 403.984C276.746 404.362 276.46 404.837 276.395 405.41H269.246C269.35 403.092 270.327 401.263 272.176 399.922C274.025 398.568 276.512 397.891 279.637 397.891C282.618 397.891 285.027 398.574 286.863 399.941C288.699 401.296 289.617 403.066 289.617 405.254V420H281.805V417.109H281.648C281.102 418.125 280.249 418.913 279.09 419.473C277.944 420.033 276.714 420.312 275.398 420.312ZM314.852 398.125C317.56 398.125 319.643 399.082 321.102 400.996C322.56 402.91 323.289 405.651 323.289 409.219C323.289 412.773 322.566 415.514 321.121 417.441C319.676 419.355 317.618 420.312 314.949 420.312C313.374 420.312 312.02 419.961 310.887 419.258C309.754 418.542 308.934 417.546 308.426 416.27H308.27V426.895H300.262V398.438H308.289V402.324H308.426C308.947 400.996 309.76 399.967 310.867 399.238C311.987 398.496 313.315 398.125 314.852 398.125ZM309.168 412.832C309.78 413.704 310.613 414.141 311.668 414.141C312.723 414.141 313.556 413.698 314.168 412.812C314.78 411.927 315.086 410.729 315.086 409.219C315.086 407.721 314.773 406.53 314.148 405.645C313.536 404.746 312.71 404.297 311.668 404.297C310.626 404.297 309.793 404.746 309.168 405.645C308.556 406.53 308.243 407.728 308.23 409.238C308.243 410.749 308.556 411.947 309.168 412.832ZM325.77 420V398.438H333.582V402.676H333.738C334.546 399.642 336.225 398.125 338.777 398.125C339.467 398.125 340.092 398.229 340.652 398.438V405.156C339.949 404.857 339.174 404.707 338.328 404.707C335.294 404.707 333.777 406.224 333.777 409.258V420H325.77ZM352.957 420.547C349.415 420.547 346.642 419.564 344.637 417.598C342.632 415.618 341.629 412.819 341.629 409.199C341.629 405.671 342.645 402.904 344.676 400.898C346.72 398.893 349.48 397.891 352.957 397.891C356.46 397.891 359.227 398.893 361.258 400.898C363.289 402.891 364.305 405.658 364.305 409.199C364.305 412.819 363.302 415.618 361.297 417.598C359.292 419.564 356.512 420.547 352.957 420.547ZM352.957 414.824C353.96 414.824 354.747 414.336 355.32 413.359C355.893 412.383 356.18 411.003 356.18 409.219C356.18 407.474 355.887 406.107 355.301 405.117C354.728 404.115 353.947 403.613 352.957 403.613C351.967 403.613 351.186 404.115 350.613 405.117C350.04 406.107 349.754 407.474 349.754 409.219C349.754 411.016 350.034 412.402 350.594 413.379C351.154 414.342 351.941 414.824 352.957 414.824ZM375.32 412.734C375.919 413.542 376.766 413.945 377.859 413.945C378.953 413.945 379.799 413.548 380.398 412.754C380.997 411.947 381.297 410.775 381.297 409.238C381.297 407.702 380.991 406.497 380.379 405.625C379.767 404.74 378.927 404.297 377.859 404.297C376.792 404.297 375.952 404.74 375.34 405.625C374.741 406.497 374.441 407.695 374.441 409.219C374.441 410.755 374.734 411.927 375.32 412.734ZM377.547 428.125C374.344 428.125 371.779 427.493 369.852 426.23C367.938 424.98 366.896 423.333 366.727 421.289H374.422C374.539 421.81 374.897 422.233 375.496 422.559C376.095 422.897 376.837 423.066 377.723 423.066C378.882 423.066 379.76 422.793 380.359 422.246C380.958 421.699 381.258 420.957 381.258 420.02V415.879H381.102C380.75 417.025 379.988 417.956 378.816 418.672C377.645 419.375 376.258 419.727 374.656 419.727C372.091 419.727 370.047 418.802 368.523 416.953C367 415.091 366.238 412.493 366.238 409.16C366.238 405.697 366.987 402.995 368.484 401.055C369.995 399.102 372.091 398.125 374.773 398.125C376.31 398.125 377.638 398.516 378.758 399.297C379.891 400.065 380.672 401.074 381.102 402.324H381.258V398.438H389.266V419.824C389.266 422.363 388.185 424.382 386.023 425.879C383.875 427.376 381.049 428.125 377.547 428.125ZM392.293 420V398.438H400.105V402.676H400.262C401.069 399.642 402.749 398.125 405.301 398.125C405.991 398.125 406.616 398.229 407.176 398.438V405.156C406.473 404.857 405.698 404.707 404.852 404.707C401.818 404.707 400.301 406.224 400.301 409.258V420H392.293ZM417.957 414.961C418.882 414.961 419.682 414.727 420.359 414.258C421.036 413.776 421.375 413.151 421.375 412.383V410.977L417.977 411.211C417.221 411.263 416.635 411.458 416.219 411.797C415.802 412.135 415.594 412.572 415.594 413.105C415.594 413.678 415.809 414.134 416.238 414.473C416.668 414.798 417.241 414.961 417.957 414.961ZM414.969 420.312C412.964 420.312 411.251 419.694 409.832 418.457C408.413 417.207 407.703 415.632 407.703 413.73C407.703 411.673 408.465 410.085 409.988 408.965C411.525 407.832 413.745 407.174 416.648 406.992L421.375 406.699V405.645C421.375 404.941 421.134 404.395 420.652 404.004C420.171 403.613 419.546 403.418 418.777 403.418C417.983 403.418 417.332 403.607 416.824 403.984C416.316 404.362 416.03 404.837 415.965 405.41H408.816C408.921 403.092 409.897 401.263 411.746 399.922C413.595 398.568 416.082 397.891 419.207 397.891C422.189 397.891 424.598 398.574 426.434 399.941C428.27 401.296 429.188 403.066 429.188 405.254V420H421.375V417.109H421.219C420.672 418.125 419.819 418.913 418.66 419.473C417.514 420.033 416.284 420.312 414.969 420.312ZM432.215 420V398.438H440.027V402.793H440.184C440.587 401.335 441.349 400.176 442.469 399.316C443.589 398.444 444.884 398.008 446.355 398.008C447.996 398.008 449.337 398.424 450.379 399.258C451.434 400.078 452.091 401.243 452.352 402.754H452.508C452.872 401.322 453.654 400.176 454.852 399.316C456.062 398.444 457.488 398.008 459.129 398.008C461.225 398.008 462.931 398.698 464.246 400.078C465.561 401.445 466.219 403.229 466.219 405.43V420H458.211V407.5C458.211 405.456 457.339 404.434 455.594 404.434C454.786 404.434 454.155 404.707 453.699 405.254C453.243 405.788 453.016 406.53 453.016 407.48V420H445.418V407.52C445.418 405.462 444.552 404.434 442.82 404.434C442.013 404.434 441.375 404.707 440.906 405.254C440.451 405.801 440.223 406.543 440.223 407.48V420H432.215ZM478.621 414.961C479.546 414.961 480.346 414.727 481.023 414.258C481.701 413.776 482.039 413.151 482.039 412.383V410.977L478.641 411.211C477.885 411.263 477.299 411.458 476.883 411.797C476.466 412.135 476.258 412.572 476.258 413.105C476.258 413.678 476.473 414.134 476.902 414.473C477.332 414.798 477.905 414.961 478.621 414.961ZM475.633 420.312C473.628 420.312 471.915 419.694 470.496 418.457C469.077 417.207 468.367 415.632 468.367 413.73C468.367 411.673 469.129 410.085 470.652 408.965C472.189 407.832 474.409 407.174 477.312 406.992L482.039 406.699V405.645C482.039 404.941 481.798 404.395 481.316 404.004C480.835 403.613 480.21 403.418 479.441 403.418C478.647 403.418 477.996 403.607 477.488 403.984C476.98 404.362 476.694 404.837 476.629 405.41H469.48C469.585 403.092 470.561 401.263 472.41 399.922C474.259 398.568 476.746 397.891 479.871 397.891C482.853 397.891 485.262 398.574 487.098 399.941C488.934 401.296 489.852 403.066 489.852 405.254V420H482.039V417.109H481.883C481.336 418.125 480.483 418.913 479.324 419.473C478.178 420.033 476.948 420.312 475.633 420.312Z" fill="white"/>
</g>
<defs>
<filter id="filter0_i_4163_296" x="0" y="0" width="656" height="429" filterUnits="userSpaceOnUse" color-interpolation-filters="sRGB">
<feFlood flood-opacity="0" result="BackgroundImageFix"/>
<feBlend mode="normal" in="SourceGraphic" in2="BackgroundImageFix" result="shape"/>
<feColorMatrix in="SourceAlpha" type="matrix" values="0 0 0 0 0 0 0 0 0 0 0 0 0 0 0 0 0 0 127 0" result="hardAlpha"/>
<feOffset dy="1"/>
<feComposite in2="hardAlpha" operator="arithmetic" k2="-1" k3="1"/>
<feColorMatrix type="matrix" values="0 0 0 0 1 0 0 0 0 1 0 0 0 0 1 0 0 0 1 0"/>
<feBlend mode="overlay" in2="shape" result="effect1_innerShadow_4163_296"/>
</filter>
<radialGradient id="paint0_radial_4163_296" cx="0" cy="0" r="1" gradientUnits="userSpaceOnUse" gradientTransform="translate(610.535 318.778) rotate(-158.441) scale(673.422 319.854)">
<stop stop-color="#45278B"/>
<stop offset="1" stop-color="#2E335A"/>
</radialGradient>
</defs>
</svg>
